<svg width="90" height="80" viewBox="0 0 90 80" fill="none" xmlns="http://www.w3.org/2000/svg">
<g filter="url(#filter0_d_134_6)">
<path d="M44.8266 62.8445C58.6436 62.8445 69.8446 51.6435 69.8446 37.8265C69.8446 24.0094 58.6436 12.8085 44.8266 12.8085C31.0095 12.8085 19.8086 24.0094 19.8086 37.8265C19.8086 51.6435 31.0095 62.8445 44.8266 62.8445Z" fill="#FA9E42"/>
</g>
<path fill-rule="evenodd" clip-rule="evenodd" d="M44.6937 4.00026L44.8265 4L44.9593 4.00026C45.6919 4.00307 46.2836 4.59926 46.2807 5.33188C46.2779 6.0645 45.6817 6.65611 44.9491 6.6533L44.8265 6.65306L44.704 6.6533C43.9713 6.65611 43.3751 6.0645 43.3723 5.33188C43.3695 4.59926 43.9611 4.00307 44.6937 4.00026ZM29.8348 8.95272C30.1992 9.58828 29.9794 10.3989 29.3438 10.7633C29.2734 10.8037 29.2031 10.8444 29.133 10.8853C28.5003 11.2547 27.688 11.0413 27.3186 10.4086C26.9492 9.77588 27.1627 8.96355 27.7953 8.59417C27.8714 8.54975 27.9477 8.50562 28.0242 8.46178C28.6597 8.09736 29.4704 8.31716 29.8348 8.95272ZM59.8183 8.95272C60.1827 8.31717 60.9934 8.09736 61.6289 8.46178C61.7054 8.50562 61.7816 8.54975 61.8577 8.59417C62.4904 8.96355 62.7039 9.77588 62.3345 10.4086C61.9651 11.0413 61.1528 11.2547 60.5201 10.8853C60.45 10.8444 60.3797 10.8037 60.3092 10.7633C59.6737 10.3989 59.4539 9.58828 59.8183 8.95272ZM17.4086 20.3186C18.0413 20.6879 18.2547 21.5003 17.8853 22.133C17.8444 22.2031 17.8037 22.2734 17.7634 22.3438C17.3989 22.9794 16.5883 23.1992 15.9527 22.8348C15.3172 22.4703 15.0974 21.6597 15.4618 21.0241C15.5056 20.9477 15.5498 20.8714 15.5942 20.7953C15.9636 20.1626 16.7759 19.9492 17.4086 20.3186ZM72.2445 20.3186C72.8772 19.9492 73.6895 20.1626 74.0589 20.7953C74.1033 20.8714 74.1474 20.9477 74.1913 21.0241C74.5557 21.6597 74.3359 22.4703 73.7003 22.8348C73.0648 23.1992 72.2541 22.9794 71.8897 22.3438C71.8493 22.2734 71.8087 22.2031 71.7677 22.133C71.3983 21.5003 71.6118 20.6879 72.2445 20.3186ZM12.3319 36.3723C13.0645 36.3751 13.6561 36.9713 13.6533 37.7039L13.6531 37.8265L13.6533 37.9491C13.6561 38.6817 13.0645 39.2779 12.3319 39.2807C11.5993 39.2835 11.0031 38.6919 11.0003 37.9593L11 37.8265L11.0003 37.6937C11.0031 36.9611 11.5993 36.3695 12.3319 36.3723ZM77.3212 36.3723C78.0538 36.3695 78.65 36.9611 78.6528 37.6937L78.6531 37.8265L78.6528 37.9593C78.65 38.6919 78.0538 39.2835 77.3212 39.2807C76.5886 39.2779 75.9969 38.6817 75.9998 37.9491L76 37.8265L75.9998 37.7039C75.9969 36.9713 76.5886 36.3751 77.3212 36.3723ZM15.9527 52.8183C16.5883 52.4539 17.3989 52.6737 17.7633 53.3092C17.8037 53.3797 17.8444 53.45 17.8853 53.5201C18.2547 54.1528 18.0413 54.9651 17.4086 55.3345C16.7759 55.7039 15.9636 55.4904 15.5942 54.8577C15.5498 54.7816 15.5056 54.7054 15.4618 54.6289C15.0974 53.9933 15.3172 53.1827 15.9527 52.8183ZM73.7003 52.8183C74.3359 53.1827 74.5557 53.9933 74.1913 54.6289C74.1474 54.7054 74.1033 54.7816 74.0589 54.8577C73.6895 55.4904 72.8772 55.7039 72.2445 55.3345C71.6118 54.9651 71.3983 54.1528 71.7677 53.5201C71.8087 53.45 71.8493 53.3797 71.8897 53.3092C72.2541 52.6737 73.0648 52.4539 73.7003 52.8183ZM27.3186 65.2445C27.688 64.6118 28.5003 64.3983 29.133 64.7677C29.2031 64.8086 29.2734 64.8493 29.3438 64.8897C29.9794 65.2541 30.1992 66.0648 29.8348 66.7003C29.4704 67.3359 28.6597 67.5557 28.0242 67.1913C27.9477 67.1474 27.8714 67.1033 27.7953 67.0589C27.1626 66.6895 26.9492 65.8772 27.3186 65.2445ZM62.3345 65.2445C62.7039 65.8772 62.4904 66.6895 61.8577 67.0589C61.7816 67.1033 61.7054 67.1474 61.6289 67.1913C60.9934 67.5557 60.1827 67.3359 59.8183 66.7003C59.4539 66.0648 59.6737 65.2541 60.3092 64.8897C60.3797 64.8493 60.45 64.8086 60.5201 64.7677C61.1528 64.3983 61.9651 64.6118 62.3345 65.2445ZM43.3723 70.3212C43.3751 69.5885 43.9713 68.9969 44.7039 68.9997L44.8265 69L44.9491 68.9997C45.6817 68.9969 46.2779 69.5886 46.2807 70.3212C46.2836 71.0538 45.6919 71.65 44.9593 71.6528L44.8265 71.653L44.6937 71.6528C43.9611 71.65 43.3695 71.0538 43.3723 70.3212Z" fill="#FA9E42"/>
<g filter="url(#filter1_f_134_6)">
<path d="M41.2052 32.6154C48.895 28.531 53.245 21.6731 50.9211 17.2979C48.5973 12.9227 40.4796 12.687 32.7898 16.7714C25.1 20.8558 20.7501 27.7136 23.0739 32.0888C25.3978 36.464 33.5155 36.6997 41.2052 32.6154Z" fill="#F6DC51"/>
</g>
<defs>
<filter id="filter0_d_134_6" x="15.1323" y="6.26172" width="64.0649" height="64.0647" filterUnits="userSpaceOnUse" color-interpolation-filters="sRGB">
<feFlood flood-opacity="0" result="BackgroundImageFix"/>
<feColorMatrix in="SourceAlpha" type="matrix" values="0 0 0 0 0 0 0 0 0 0 0 0 0 0 0 0 0 0 127 0" result="hardAlpha"/>
<feOffset dx="2.33813" dy="0.467626"/>
<feGaussianBlur stdDeviation="3.50719"/>
<feColorMatrix type="matrix" values="0 0 0 0 0.991667 0 0 0 0 0.850355 0 0 0 0 0.576045 0 0 0 0.38 0"/>
<feBlend mode="normal" in2="BackgroundImageFix" result="effect1_dropShadow_134_6"/>
<feBlend mode="normal" in="SourceGraphic" in2="effect1_dropShadow_134_6" result="shape"/>
</filter>
<filter id="filter1_f_134_6" x="16.374" y="7.78167" width="41.2471" height="33.8234" filterUnits="userSpaceOnUse" color-interpolation-filters="sRGB">
<feFlood flood-opacity="0" result="BackgroundImageFix"/>
<feBlend mode="normal" in="SourceGraphic" in2="BackgroundImageFix" result="shape"/>
<feGaussianBlur stdDeviation="3.0371" result="effect1_foregroundBlur_134_6"/>
</filter>
</defs>
</svg>
