<svg width="90" height="80" viewBox="0 0 90 80" fill="none" xmlns="http://www.w3.org/2000/svg">
<g filter="url(#filter0_d_213_2132)">
<path d="M45 69.9032C61.5685 69.9032 75 56.4718 75 39.9032C75 23.3347 61.5685 9.90323 45 9.90323C28.4315 9.90323 15 23.3347 15 39.9032C15 56.4718 28.4315 69.9032 45 69.9032Z" fill="#EE9C3B"/>
</g>
<g filter="url(#filter1_f_213_2132)">
<path d="M40.7284 33.7654C49.5849 29.0613 54.5949 21.163 51.9184 16.1239C49.242 11.0849 39.8927 10.8134 31.0361 15.5175C22.1796 20.2216 17.1697 28.1199 19.8461 33.1589C22.5226 38.1979 31.8719 38.4695 40.7284 33.7654Z" fill="#EFDA6A" fill-opacity="0.8"/>
</g>
<defs>
<filter id="filter0_d_213_2132" x="7.25806" y="2.16129" width="75.4839" height="75.4839" filterUnits="userSpaceOnUse" color-interpolation-filters="sRGB">
<feFlood flood-opacity="0" result="BackgroundImageFix"/>
<feColorMatrix in="SourceAlpha" type="matrix" values="0 0 0 0 0 0 0 0 0 0 0 0 0 0 0 0 0 0 127 0" result="hardAlpha"/>
<feOffset/>
<feGaussianBlur stdDeviation="3.87097"/>
<feColorMatrix type="matrix" values="0 0 0 0 1 0 0 0 0 0.835667 0 0 0 0 0.516667 0 0 0 0.8 0"/>
<feBlend mode="normal" in2="BackgroundImageFix" result="effect1_dropShadow_213_2132"/>
<feBlend mode="normal" in="SourceGraphic" in2="effect1_dropShadow_213_2132" result="shape"/>
</filter>
<filter id="filter1_f_213_2132" x="12.6751" y="5.70922" width="46.4145" height="37.8644" filterUnits="userSpaceOnUse" color-interpolation-filters="sRGB">
<feFlood flood-opacity="0" result="BackgroundImageFix"/>
<feBlend mode="normal" in="SourceGraphic" in2="BackgroundImageFix" result="shape"/>
<feGaussianBlur stdDeviation="3.22521" result="effect1_foregroundBlur_213_2132"/>
</filter>
</defs>
</svg>
