<svg width="90" height="80" viewBox="0 0 90 80" fill="none" xmlns="http://www.w3.org/2000/svg">
<g filter="url(#filter0_d_134_6)">
<path d="M44.8266 64.8445C58.6436 64.8445 69.8446 53.6435 69.8446 39.8265C69.8446 26.0094 58.6436 14.8085 44.8266 14.8085C31.0095 14.8085 19.8086 26.0094 19.8086 39.8265C19.8086 53.6435 31.0095 64.8445 44.8266 64.8445Z" fill="#FA9E42"/>
</g>
<path fill-rule="evenodd" clip-rule="evenodd" d="M44.6937 6.00026L44.8265 6L44.9593 6.00026C45.6919 6.00307 46.2836 6.59926 46.2807 7.33188C46.2779 8.0645 45.6817 8.65611 44.9491 8.6533L44.8265 8.65306L44.704 8.6533C43.9713 8.65611 43.3751 8.0645 43.3723 7.33188C43.3695 6.59926 43.9611 6.00307 44.6937 6.00026ZM29.8348 10.9527C30.1992 11.5883 29.9794 12.3989 29.3438 12.7633C29.2734 12.8037 29.2031 12.8444 29.133 12.8853C28.5003 13.2547 27.688 13.0413 27.3186 12.4086C26.9492 11.7759 27.1627 10.9635 27.7953 10.5942C27.8714 10.5497 27.9477 10.5056 28.0242 10.4618C28.6597 10.0974 29.4704 10.3172 29.8348 10.9527ZM59.8183 10.9527C60.1827 10.3172 60.9934 10.0974 61.6289 10.4618C61.7054 10.5056 61.7816 10.5498 61.8577 10.5942C62.4904 10.9635 62.7039 11.7759 62.3345 12.4086C61.9651 13.0413 61.1528 13.2547 60.5201 12.8853C60.45 12.8444 60.3797 12.8037 60.3092 12.7633C59.6737 12.3989 59.4539 11.5883 59.8183 10.9527ZM17.4086 22.3186C18.0413 22.6879 18.2547 23.5003 17.8853 24.133C17.8444 24.2031 17.8037 24.2734 17.7634 24.3438C17.3989 24.9794 16.5883 25.1992 15.9527 24.8348C15.3172 24.4703 15.0974 23.6597 15.4618 23.0241C15.5056 22.9477 15.5498 22.8714 15.5942 22.7953C15.9636 22.1626 16.7759 21.9492 17.4086 22.3186ZM72.2445 22.3186C72.8772 21.9492 73.6895 22.1626 74.0589 22.7953C74.1033 22.8714 74.1474 22.9477 74.1913 23.0241C74.5557 23.6597 74.3359 24.4703 73.7003 24.8348C73.0648 25.1992 72.2541 24.9794 71.8897 24.3438C71.8493 24.2734 71.8087 24.2031 71.7677 24.133C71.3983 23.5003 71.6118 22.6879 72.2445 22.3186ZM12.3319 38.3723C13.0645 38.3751 13.6561 38.9713 13.6533 39.7039L13.6531 39.8265L13.6533 39.9491C13.6561 40.6817 13.0645 41.2779 12.3319 41.2807C11.5993 41.2835 11.0031 40.6919 11.0003 39.9593L11 39.8265L11.0003 39.6937C11.0031 38.9611 11.5993 38.3695 12.3319 38.3723ZM77.3212 38.3723C78.0538 38.3695 78.65 38.9611 78.6528 39.6937L78.6531 39.8265L78.6528 39.9593C78.65 40.6919 78.0538 41.2835 77.3212 41.2807C76.5886 41.2779 75.9969 40.6817 75.9998 39.9491L76 39.8265L75.9998 39.7039C75.9969 38.9713 76.5886 38.3751 77.3212 38.3723ZM15.9527 54.8183C16.5883 54.4539 17.3989 54.6737 17.7633 55.3092C17.8037 55.3797 17.8444 55.45 17.8853 55.5201C18.2547 56.1528 18.0413 56.9651 17.4086 57.3345C16.7759 57.7039 15.9636 57.4904 15.5942 56.8577C15.5498 56.7816 15.5056 56.7054 15.4618 56.6289C15.0974 55.9933 15.3172 55.1827 15.9527 54.8183ZM73.7003 54.8183C74.3359 55.1827 74.5557 55.9933 74.1913 56.6289C74.1474 56.7054 74.1033 56.7816 74.0589 56.8577C73.6895 57.4904 72.8772 57.7039 72.2445 57.3345C71.6118 56.9651 71.3983 56.1528 71.7677 55.5201C71.8087 55.45 71.8493 55.3797 71.8897 55.3092C72.2541 54.6737 73.0648 54.4539 73.7003 54.8183ZM27.3186 67.2445C27.688 66.6118 28.5003 66.3983 29.133 66.7677C29.2031 66.8086 29.2734 66.8493 29.3438 66.8897C29.9794 67.2541 30.1992 68.0648 29.8348 68.7003C29.4704 69.3359 28.6597 69.5557 28.0242 69.1913C27.9477 69.1474 27.8714 69.1033 27.7953 69.0589C27.1626 68.6895 26.9492 67.8772 27.3186 67.2445ZM62.3345 67.2445C62.7039 67.8772 62.4904 68.6895 61.8577 69.0589C61.7816 69.1033 61.7054 69.1474 61.6289 69.1913C60.9934 69.5557 60.1827 69.3359 59.8183 68.7003C59.4539 68.0648 59.6737 67.2541 60.3092 66.8897C60.3797 66.8493 60.45 66.8086 60.5201 66.7677C61.1528 66.3983 61.9651 66.6118 62.3345 67.2445ZM43.3723 72.3212C43.3751 71.5885 43.9713 70.9969 44.7039 70.9997L44.8265 71L44.9491 70.9997C45.6817 70.9969 46.2779 71.5886 46.2807 72.3212C46.2836 73.0538 45.6919 73.65 44.9593 73.6528L44.8265 73.653L44.6937 73.6528C43.9611 73.65 43.3695 73.0538 43.3723 72.3212Z" fill="#FA9E42"/>
<g filter="url(#filter1_f_134_6)">
<path d="M41.2052 34.6154C48.895 30.531 53.245 23.6731 50.9211 19.2979C48.5973 14.9227 40.4796 14.687 32.7898 18.7714C25.1 22.8558 20.7501 29.7136 23.0739 34.0888C25.3978 38.464 33.5155 38.6997 41.2052 34.6154Z" fill="#F6DC51"/>
</g>
<defs>
<filter id="filter0_d_134_6" x="15.1323" y="8.26172" width="64.0649" height="64.0647" filterUnits="userSpaceOnUse" color-interpolation-filters="sRGB">
<feFlood flood-opacity="0" result="BackgroundImageFix"/>
<feColorMatrix in="SourceAlpha" type="matrix" values="0 0 0 0 0 0 0 0 0 0 0 0 0 0 0 0 0 0 127 0" result="hardAlpha"/>
<feOffset dx="2.33813" dy="0.467626"/>
<feGaussianBlur stdDeviation="3.50719"/>
<feColorMatrix type="matrix" values="0 0 0 0 0 0 0 0 0 0 0 0 0 0 0 0 0 0 0.25 0"/>
<feBlend mode="normal" in2="BackgroundImageFix" result="effect1_dropShadow_134_6"/>
<feBlend mode="normal" in="SourceGraphic" in2="effect1_dropShadow_134_6" result="shape"/>
</filter>
<filter id="filter1_f_134_6" x="16.374" y="9.78167" width="41.2471" height="33.8234" filterUnits="userSpaceOnUse" color-interpolation-filters="sRGB">
<feFlood flood-opacity="0" result="BackgroundImageFix"/>
<feBlend mode="normal" in="SourceGraphic" in2="BackgroundImageFix" result="shape"/>
<feGaussianBlur stdDeviation="3.0371" result="effect1_foregroundBlur_134_6"/>
</filter>
</defs>
</svg>
