<svg width="90" height="80" viewBox="0 0 90 80" fill="none" xmlns="http://www.w3.org/2000/svg">
<g filter="url(#filter0_d_213_1867)">
<path fill-rule="evenodd" clip-rule="evenodd" d="M75 45.4034C72.0384 46.6786 68.7743 47.385 65.3452 47.385C51.8509 47.385 40.9115 36.4457 40.9115 22.9513C40.9115 18.6831 42.0059 14.6706 43.9293 11.179C29.0307 12.4338 17.3301 24.9241 17.3301 40.1473C17.3301 56.2034 30.346 69.2194 46.402 69.2194C60.6633 69.2194 72.5262 58.9505 75 45.4034Z" fill="#EEB139"/>
</g>
<g filter="url(#filter1_i_213_1867)">
<path d="M56.8911 16.2406C55.0597 17.0539 54.3449 17.7411 53.6898 19.4419C53.168 17.7937 52.5265 17.0585 50.4885 16.2406C52.5849 15.5576 53.1539 14.7669 53.6898 13.0393C54.3483 14.6315 54.755 15.5005 56.8911 16.2406Z" fill="#EEB139"/>
</g>
<g filter="url(#filter2_i_213_1867)">
<path d="M52.3345 32.1004C51.0083 32.6893 50.4907 33.187 50.0163 34.4186C49.6384 33.225 49.1738 32.6926 47.6981 32.1004C49.2162 31.6058 49.6282 31.0332 50.0163 29.7822C50.4931 30.9351 50.7876 31.5644 52.3345 32.1004Z" fill="#EEB139"/>
</g>
<g filter="url(#filter3_i_213_1867)">
<path d="M15.8882 23.1789C14.3446 23.8643 13.7421 24.4436 13.1899 25.8772C12.7501 24.4879 12.2093 23.8682 10.4916 23.1789C12.2586 22.6031 12.7382 21.9367 13.1899 20.4806C13.7449 21.8226 14.0877 22.555 15.8882 23.1789Z" fill="#EEB139"/>
</g>
<g filter="url(#filter4_f_213_1867)">
<path d="M36.3739 35.6313C39.7924 30.6475 39.6577 24.6141 36.0731 22.1553C32.4884 19.6966 26.8113 21.7435 23.3928 26.7274C19.9743 31.7112 20.109 37.7445 23.6937 40.2033C27.2783 42.662 32.9554 40.6151 36.3739 35.6313Z" fill="#FFED8E" fill-opacity="0.72"/>
</g>
<defs>
<filter id="filter0_d_213_1867" x="10.5389" y="4.38781" width="71.2522" height="71.6228" filterUnits="userSpaceOnUse" color-interpolation-filters="sRGB">
<feFlood flood-opacity="0" result="BackgroundImageFix"/>
<feColorMatrix in="SourceAlpha" type="matrix" values="0 0 0 0 0 0 0 0 0 0 0 0 0 0 0 0 0 0 127 0" result="hardAlpha"/>
<feOffset/>
<feGaussianBlur stdDeviation="3.39557"/>
<feColorMatrix type="matrix" values="0 0 0 0 0.9925 0 0 0 0 0.931646 0 0 0 0 0.5955 0 0 0 0.6 0"/>
<feBlend mode="normal" in2="BackgroundImageFix" result="effect1_dropShadow_213_1867"/>
<feBlend mode="normal" in="SourceGraphic" in2="effect1_dropShadow_213_1867" result="shape"/>
</filter>
<filter id="filter1_i_213_1867" x="50.4883" y="13.0393" width="6.40283" height="7.30086" filterUnits="userSpaceOnUse" color-interpolation-filters="sRGB">
<feFlood flood-opacity="0" result="BackgroundImageFix"/>
<feBlend mode="normal" in="SourceGraphic" in2="BackgroundImageFix" result="shape"/>
<feColorMatrix in="SourceAlpha" type="matrix" values="0 0 0 0 0 0 0 0 0 0 0 0 0 0 0 0 0 0 127 0" result="hardAlpha"/>
<feOffset dy="0.89821"/>
<feGaussianBlur stdDeviation="0.449105"/>
<feComposite in2="hardAlpha" operator="arithmetic" k2="-1" k3="1"/>
<feColorMatrix type="matrix" values="0 0 0 0 1 0 0 0 0 1 0 0 0 0 1 0 0 0 0.44 0"/>
<feBlend mode="normal" in2="shape" result="effect1_innerShadow_213_1867"/>
</filter>
<filter id="filter2_i_213_1867" x="47.6982" y="29.7822" width="4.63623" height="5.53465" filterUnits="userSpaceOnUse" color-interpolation-filters="sRGB">
<feFlood flood-opacity="0" result="BackgroundImageFix"/>
<feBlend mode="normal" in="SourceGraphic" in2="BackgroundImageFix" result="shape"/>
<feColorMatrix in="SourceAlpha" type="matrix" values="0 0 0 0 0 0 0 0 0 0 0 0 0 0 0 0 0 0 127 0" result="hardAlpha"/>
<feOffset dy="0.89821"/>
<feGaussianBlur stdDeviation="0.449105"/>
<feComposite in2="hardAlpha" operator="arithmetic" k2="-1" k3="1"/>
<feColorMatrix type="matrix" values="0 0 0 0 1 0 0 0 0 1 0 0 0 0 1 0 0 0 0.44 0"/>
<feBlend mode="normal" in2="shape" result="effect1_innerShadow_213_1867"/>
</filter>
<filter id="filter3_i_213_1867" x="10.4917" y="20.4806" width="5.39648" height="6.29482" filterUnits="userSpaceOnUse" color-interpolation-filters="sRGB">
<feFlood flood-opacity="0" result="BackgroundImageFix"/>
<feBlend mode="normal" in="SourceGraphic" in2="BackgroundImageFix" result="shape"/>
<feColorMatrix in="SourceAlpha" type="matrix" values="0 0 0 0 0 0 0 0 0 0 0 0 0 0 0 0 0 0 127 0" result="hardAlpha"/>
<feOffset dy="0.89821"/>
<feGaussianBlur stdDeviation="0.449105"/>
<feComposite in2="hardAlpha" operator="arithmetic" k2="-1" k3="1"/>
<feColorMatrix type="matrix" values="0 0 0 0 1 0 0 0 0 1 0 0 0 0 1 0 0 0 0.44 0"/>
<feBlend mode="normal" in2="shape" result="effect1_innerShadow_213_1867"/>
</filter>
<filter id="filter4_f_213_1867" x="15.2169" y="15.417" width="29.3328" height="31.5246" filterUnits="userSpaceOnUse" color-interpolation-filters="sRGB">
<feFlood flood-opacity="0" result="BackgroundImageFix"/>
<feBlend mode="normal" in="SourceGraphic" in2="BackgroundImageFix" result="shape"/>
<feGaussianBlur stdDeviation="2.84882" result="effect1_foregroundBlur_213_1867"/>
</filter>
</defs>
</svg>
