<svg width="90" height="80" viewBox="0 0 90 80" fill="none" xmlns="http://www.w3.org/2000/svg">
<path d="M28.25 44.9578C38.5818 44.9578 46.9574 36.5822 46.9574 26.2504C46.9574 15.9185 38.5818 7.54288 28.25 7.54288C17.9181 7.54288 9.54248 15.9185 9.54248 26.2504C9.54248 36.5822 17.9181 44.9578 28.25 44.9578Z" fill="#FA9E42"/>
<path fill-rule="evenodd" clip-rule="evenodd" d="M28.1077 2.00041C28.1552 2.00014 28.2028 2 28.2504 2C28.298 2 28.3456 2.00014 28.3932 2.00041C29.0309 2.00409 29.5449 2.52408 29.5413 3.16184C29.5376 3.79959 29.0176 4.31362 28.3798 4.30994C28.3367 4.30969 28.2936 4.30956 28.2504 4.30956C28.2073 4.30956 28.1641 4.30969 28.121 4.30994C27.4833 4.31362 26.9633 3.79959 26.9596 3.16184C26.9559 2.52408 27.4699 2.00409 28.1077 2.00041ZM12.8366 9.01211C13.285 9.4657 13.2807 10.1969 12.8271 10.6452C12.7661 10.7055 12.7055 10.7661 12.6452 10.8271C12.1969 11.2807 11.4657 11.285 11.0121 10.8366C10.5585 10.3883 10.5543 9.65715 11.0026 9.20356C11.0692 9.13618 11.1362 9.06919 11.2036 9.0026C11.6572 8.55426 12.3883 8.55852 12.8366 9.01211ZM43.6642 9.01211C44.1126 8.55852 44.8437 8.55426 45.2973 9.0026C45.3647 9.0692 45.4317 9.13619 45.4983 9.20356C45.9466 9.65715 45.9423 10.3883 45.4888 10.8366C45.0352 11.285 44.304 11.2807 43.8557 10.8271C43.7954 10.7661 43.7347 10.7055 43.6737 10.6452C43.2201 10.1969 43.2159 9.4657 43.6642 9.01211ZM51.339 24.9596C51.9768 24.9559 52.4968 25.4699 52.5004 26.1077C52.5007 26.1552 52.5009 26.2028 52.5009 26.2504C52.5009 26.298 52.5007 26.3456 52.5004 26.3932C52.4968 27.0309 51.9768 27.5449 51.339 27.5413C50.7013 27.5376 50.1872 27.0176 50.1909 26.3798C50.1912 26.3367 50.1913 26.2936 50.1913 26.2504C50.1913 26.2073 50.1912 26.1641 50.1909 26.121C50.1872 25.4833 50.7013 24.9633 51.339 24.9596ZM5.16184 24.9596C5.79959 24.9633 6.31362 25.4833 6.30994 26.121C6.30969 26.1641 6.30956 26.2073 6.30956 26.2504C6.30956 26.2936 6.30969 26.3367 6.30994 26.3798C6.31362 27.0176 5.79959 27.5376 5.16184 27.5413C4.52408 27.5449 4.00409 27.0309 4.00041 26.3932C4.00014 26.3456 4 26.298 4 26.2504C4 26.2028 4.00014 26.1552 4.00041 26.1077C4.00409 25.4699 4.52408 24.9559 5.16184 24.9596ZM11.0121 41.6642C11.4657 41.2159 12.1969 41.2201 12.6452 41.6737C12.7055 41.7347 12.7661 41.7954 12.8271 41.8557C13.2807 42.304 13.285 43.0352 12.8366 43.4888C12.3883 43.9423 11.6572 43.9466 11.2036 43.4983C11.1362 43.4317 11.0692 43.3647 11.0026 43.2973C10.5543 42.8437 10.5585 42.1126 11.0121 41.6642ZM45.4887 41.6642C45.9423 42.1126 45.9466 42.8437 45.4983 43.2973C45.4317 43.3647 45.3647 43.4317 45.2973 43.4983C44.8437 43.9466 44.1126 43.9423 43.6642 43.4888C43.2159 43.0352 43.2201 42.304 43.6737 41.8557C43.7347 41.7954 43.7954 41.7347 43.8557 41.6737C44.304 41.2201 45.0352 41.2159 45.4887 41.6642ZM26.9596 49.339C26.9633 48.7013 27.4833 48.1872 28.121 48.1909C28.1641 48.1912 28.2073 48.1913 28.2504 48.1913C28.2732 48.1913 28.296 48.1913 28.3188 48.1912C28.3391 48.1911 28.3595 48.191 28.3798 48.1909C29.0176 48.1872 29.5376 48.7013 29.5413 49.339C29.5449 49.9768 29.0309 50.4968 28.3932 50.5004C28.3456 50.5007 28.298 50.5009 28.2504 50.5009C28.2028 50.5009 28.1552 50.5007 28.1077 50.5004C27.4699 50.4968 26.9559 49.9768 26.9596 49.339Z" fill="#FA9E42"/>
<g filter="url(#filter0_f_134_21)">
<path d="M26.4387 23.1425C32.4419 19.954 35.8378 14.6002 34.0236 11.1845C32.2094 7.76887 25.8721 7.58481 19.8689 10.7734C13.8656 13.962 10.4697 19.3158 12.2839 22.7314C14.0981 26.1471 20.4354 26.3311 26.4387 23.1425Z" fill="#F6DC51"/>
</g>
<g filter="url(#filter1_d_134_21)">
<path d="M56.7845 62.5227C56.338 62.5586 55.8871 62.5767 55.4318 62.577H23.6697C21.4834 62.5851 19.3171 62.1615 17.2948 61.3305C15.2726 60.4995 13.4344 59.2774 11.8855 57.7344C10.3367 56.1913 9.10777 54.3576 8.26922 52.3385C7.43068 50.3194 6.99902 48.1546 6.99902 45.9683C6.99902 43.782 7.43068 41.6172 8.26922 39.5981C9.10777 37.579 10.3367 35.7453 11.8855 34.2022C13.4344 32.6592 15.2726 31.4371 17.2948 30.6061C19.3171 29.7751 21.4834 29.3515 23.6697 29.3596H35.5123C39.3517 20.9124 48.1943 14.9999 58.4887 14.9999C72.3062 14.9999 83.5076 25.6505 83.5076 38.7884C83.5076 51.9264 72.3062 62.577 58.4887 62.577C57.916 62.577 57.3479 62.5589 56.7845 62.5227Z" fill="url(#paint0_linear_134_21)"/>
</g>
<defs>
<filter id="filter0_f_134_21" x="6.79541" y="3.49734" width="32.7168" height="26.9213" filterUnits="userSpaceOnUse" color-interpolation-filters="sRGB">
<feFlood flood-opacity="0" result="BackgroundImageFix"/>
<feBlend mode="normal" in="SourceGraphic" in2="BackgroundImageFix" result="shape"/>
<feGaussianBlur stdDeviation="2.5" result="effect1_foregroundBlur_134_21"/>
</filter>
<filter id="filter1_d_134_21" x="5.30859" y="11.4618" width="84.5083" height="55.5771" filterUnits="userSpaceOnUse" color-interpolation-filters="sRGB">
<feFlood flood-opacity="0" result="BackgroundImageFix"/>
<feColorMatrix in="SourceAlpha" type="matrix" values="0 0 0 0 0 0 0 0 0 0 0 0 0 0 0 0 0 0 127 0" result="hardAlpha"/>
<feOffset dx="2.30956" dy="0.461913"/>
<feGaussianBlur stdDeviation="2"/>
<feColorMatrix type="matrix" values="0 0 0 0 0.718056 0 0 0 0 0.806834 0 0 0 0 0.979167 0 0 0 0.5 0"/>
<feBlend mode="normal" in2="BackgroundImageFix" result="effect1_dropShadow_134_21"/>
<feBlend mode="normal" in="SourceGraphic" in2="effect1_dropShadow_134_21" result="shape"/>
</filter>
<linearGradient id="paint0_linear_134_21" x1="37.985" y1="20.9946" x2="53.2378" y2="65.1562" gradientUnits="userSpaceOnUse">
<stop stop-color="white" stop-opacity="0.95"/>
<stop offset="1" stop-color="#BCDBFF" stop-opacity="0.5"/>
</linearGradient>
</defs>
</svg>
