<svg width="90" height="80" viewBox="0 0 90 80" fill="none" xmlns="http://www.w3.org/2000/svg">
<g filter="url(#filter0_d_213_2137)">
<path d="M33 52.9355C44.0457 52.9355 53 43.9812 53 32.9355C53 21.8898 44.0457 12.9355 33 12.9355C21.9543 12.9355 13 21.8898 13 32.9355C13 43.9812 21.9543 52.9355 33 52.9355Z" fill="#EE9C3B"/>
</g>
<g filter="url(#filter1_f_213_2137)">
<path d="M30.1523 28.8436C36.0566 25.7075 39.3966 20.442 37.6123 17.0826C35.828 13.7233 29.5951 13.5423 23.6908 16.6783C17.7864 19.8144 14.4465 25.0799 16.2307 28.4393C18.015 31.7986 24.2479 31.9796 30.1523 28.8436Z" fill="#EFDA6A" fill-opacity="0.8"/>
</g>
<g filter="url(#filter2_d_213_2137)">
<path fill-rule="evenodd" clip-rule="evenodd" d="M73.013 47.7532C73.1462 46.8458 73.2152 45.9174 73.2152 44.973C73.2152 34.4945 64.7207 26 54.2423 26C46.6653 26 40.1258 30.4415 37.085 36.8629C34.736 34.9385 31.7322 33.7838 28.4586 33.7838C20.9356 33.7838 14.837 39.8824 14.837 47.4054C14.837 47.7903 14.8529 48.1715 14.8842 48.5484C11.3931 50.3111 8.99902 53.93 8.99902 58.1081C8.99902 64.0191 13.7908 68.8108 19.7017 68.8108H70.2963C76.2073 68.8108 80.999 64.0191 80.999 58.1081C80.999 53.1359 77.6083 48.9555 73.013 47.7532Z" fill="url(#paint0_linear_213_2137)"/>
</g>
<defs>
<filter id="filter0_d_213_2137" x="7.83871" y="7.7742" width="50.3226" height="50.3226" filterUnits="userSpaceOnUse" color-interpolation-filters="sRGB">
<feFlood flood-opacity="0" result="BackgroundImageFix"/>
<feColorMatrix in="SourceAlpha" type="matrix" values="0 0 0 0 0 0 0 0 0 0 0 0 0 0 0 0 0 0 127 0" result="hardAlpha"/>
<feOffset/>
<feGaussianBlur stdDeviation="2.58065"/>
<feColorMatrix type="matrix" values="0 0 0 0 1 0 0 0 0 0.835667 0 0 0 0 0.516667 0 0 0 0.8 0"/>
<feBlend mode="normal" in2="BackgroundImageFix" result="effect1_dropShadow_213_2137"/>
<feBlend mode="normal" in="SourceGraphic" in2="effect1_dropShadow_213_2137" result="shape"/>
</filter>
<filter id="filter1_f_213_2137" x="11.4502" y="10.1395" width="30.9429" height="25.243" filterUnits="userSpaceOnUse" color-interpolation-filters="sRGB">
<feFlood flood-opacity="0" result="BackgroundImageFix"/>
<feBlend mode="normal" in="SourceGraphic" in2="BackgroundImageFix" result="shape"/>
<feGaussianBlur stdDeviation="2.15014" result="effect1_foregroundBlur_213_2137"/>
</filter>
<filter id="filter2_d_213_2137" x="6.94188" y="22.9143" width="80.2286" height="51.0394" filterUnits="userSpaceOnUse" color-interpolation-filters="sRGB">
<feFlood flood-opacity="0" result="BackgroundImageFix"/>
<feColorMatrix in="SourceAlpha" type="matrix" values="0 0 0 0 0 0 0 0 0 0 0 0 0 0 0 0 0 0 127 0" result="hardAlpha"/>
<feOffset dx="2.05714" dy="1.02857"/>
<feGaussianBlur stdDeviation="2.05714"/>
<feColorMatrix type="matrix" values="0 0 0 0 0.689883 0 0 0 0 0.785691 0 0 0 0 0.971667 0 0 0 0.7 0"/>
<feBlend mode="normal" in2="BackgroundImageFix" result="effect1_dropShadow_213_2137"/>
<feBlend mode="normal" in="SourceGraphic" in2="effect1_dropShadow_213_2137" result="shape"/>
</filter>
<linearGradient id="paint0_linear_213_2137" x1="38.159" y1="31.3942" x2="51.4032" y2="71.4981" gradientUnits="userSpaceOnUse">
<stop stop-color="white" stop-opacity="0.95"/>
<stop offset="1" stop-color="#B1D5FF" stop-opacity="0.5"/>
</linearGradient>
</defs>
</svg>
