<svg width="90" height="80" viewBox="0 0 90 80" fill="none" xmlns="http://www.w3.org/2000/svg">
<path d="M28.25 52.9578C38.5818 52.9578 46.9574 44.5822 46.9574 34.2504C46.9574 23.9185 38.5818 15.5429 28.25 15.5429C17.9181 15.5429 9.54248 23.9185 9.54248 34.2504C9.54248 44.5822 17.9181 52.9578 28.25 52.9578Z" fill="#FA9E42"/>
<path fill-rule="evenodd" clip-rule="evenodd" d="M28.1077 10.0004C28.1552 10.0001 28.2028 10 28.2504 10C28.298 10 28.3456 10.0001 28.3932 10.0004C29.0309 10.0041 29.5449 10.5241 29.5413 11.1618C29.5376 11.7996 29.0176 12.3136 28.3798 12.3099C28.3367 12.3097 28.2936 12.3096 28.2504 12.3096C28.2073 12.3096 28.1641 12.3097 28.121 12.3099C27.4833 12.3136 26.9633 11.7996 26.9596 11.1618C26.9559 10.5241 27.4699 10.0041 28.1077 10.0004ZM12.8366 17.0121C13.285 17.4657 13.2807 18.1969 12.8271 18.6452C12.7661 18.7055 12.7055 18.7661 12.6452 18.8271C12.1969 19.2807 11.4657 19.285 11.0121 18.8366C10.5585 18.3883 10.5543 17.6572 11.0026 17.2036C11.0692 17.1362 11.1362 17.0692 11.2036 17.0026C11.6572 16.5543 12.3883 16.5585 12.8366 17.0121ZM43.6642 17.0121C44.1126 16.5585 44.8437 16.5543 45.2973 17.0026C45.3647 17.0692 45.4317 17.1362 45.4983 17.2036C45.9466 17.6572 45.9423 18.3883 45.4888 18.8366C45.0352 19.285 44.304 19.2807 43.8557 18.8271C43.7954 18.7661 43.7347 18.7055 43.6737 18.6452C43.2201 18.1969 43.2159 17.4657 43.6642 17.0121ZM51.339 32.9596C51.9768 32.9559 52.4968 33.4699 52.5004 34.1077C52.5007 34.1552 52.5009 34.2028 52.5009 34.2504C52.5009 34.298 52.5007 34.3456 52.5004 34.3932C52.4968 35.0309 51.9768 35.5449 51.339 35.5413C50.7013 35.5376 50.1872 35.0176 50.1909 34.3798C50.1912 34.3367 50.1913 34.2936 50.1913 34.2504C50.1913 34.2073 50.1912 34.1641 50.1909 34.121C50.1872 33.4833 50.7013 32.9633 51.339 32.9596ZM5.16184 32.9596C5.79959 32.9633 6.31362 33.4833 6.30994 34.121C6.30969 34.1641 6.30956 34.2073 6.30956 34.2504C6.30956 34.2936 6.30969 34.3367 6.30994 34.3798C6.31362 35.0176 5.79959 35.5376 5.16184 35.5413C4.52408 35.5449 4.00409 35.0309 4.00041 34.3932C4.00014 34.3456 4 34.298 4 34.2504C4 34.2028 4.00014 34.1552 4.00041 34.1077C4.00409 33.4699 4.52408 32.9559 5.16184 32.9596ZM11.0121 49.6642C11.4657 49.2159 12.1969 49.2201 12.6452 49.6737C12.7055 49.7347 12.7661 49.7954 12.8271 49.8557C13.2807 50.304 13.285 51.0352 12.8366 51.4888C12.3883 51.9423 11.6572 51.9466 11.2036 51.4983C11.1362 51.4317 11.0692 51.3647 11.0026 51.2973C10.5543 50.8437 10.5585 50.1126 11.0121 49.6642ZM45.4887 49.6642C45.9423 50.1126 45.9466 50.8437 45.4983 51.2973C45.4317 51.3647 45.3647 51.4317 45.2973 51.4983C44.8437 51.9466 44.1126 51.9423 43.6642 51.4888C43.2159 51.0352 43.2201 50.304 43.6737 49.8557C43.7347 49.7954 43.7954 49.7347 43.8557 49.6737C44.304 49.2201 45.0352 49.2159 45.4887 49.6642ZM26.9596 57.339C26.9633 56.7013 27.4833 56.1872 28.121 56.1909C28.1641 56.1912 28.2073 56.1913 28.2504 56.1913C28.2732 56.1913 28.296 56.1913 28.3188 56.1912C28.3391 56.1911 28.3595 56.191 28.3798 56.1909C29.0176 56.1872 29.5376 56.7013 29.5413 57.339C29.5449 57.9768 29.0309 58.4968 28.3932 58.5004C28.3456 58.5007 28.298 58.5009 28.2504 58.5009C28.2028 58.5009 28.1552 58.5007 28.1077 58.5004C27.4699 58.4968 26.9559 57.9768 26.9596 57.339Z" fill="#FA9E42"/>
<g filter="url(#filter0_f_134_21)">
<path d="M26.4387 31.1425C32.4419 27.954 35.8378 22.6002 34.0236 19.1845C32.2094 15.7689 25.8721 15.5848 19.8689 18.7734C13.8656 21.962 10.4697 27.3158 12.2839 30.7314C14.0981 34.1471 20.4354 34.3311 26.4387 31.1425Z" fill="#F6DC51"/>
</g>
<g filter="url(#filter1_d_134_21)">
<path d="M56.7845 70.5227C56.338 70.5586 55.8871 70.5767 55.4318 70.577H23.6697C21.4834 70.5851 19.3171 70.1615 17.2948 69.3305C15.2726 68.4995 13.4344 67.2774 11.8855 65.7344C10.3367 64.1913 9.10777 62.3576 8.26922 60.3385C7.43068 58.3194 6.99902 56.1546 6.99902 53.9683C6.99902 51.782 7.43068 49.6172 8.26922 47.5981C9.10777 45.579 10.3367 43.7453 11.8855 42.2022C13.4344 40.6592 15.2726 39.4371 17.2948 38.6061C19.3171 37.7751 21.4834 37.3515 23.6697 37.3596H35.5123C39.3517 28.9124 48.1943 22.9999 58.4887 22.9999C72.3062 22.9999 83.5076 33.6505 83.5076 46.7884C83.5076 59.9264 72.3062 70.577 58.4887 70.577C57.916 70.577 57.3479 70.5589 56.7845 70.5227Z" fill="url(#paint0_linear_134_21)"/>
</g>
<defs>
<filter id="filter0_f_134_21" x="6.79541" y="11.4973" width="32.7168" height="26.9213" filterUnits="userSpaceOnUse" color-interpolation-filters="sRGB">
<feFlood flood-opacity="0" result="BackgroundImageFix"/>
<feBlend mode="normal" in="SourceGraphic" in2="BackgroundImageFix" result="shape"/>
<feGaussianBlur stdDeviation="2.5" result="effect1_foregroundBlur_134_21"/>
</filter>
<filter id="filter1_d_134_21" x="5.30859" y="19.4618" width="84.5083" height="55.5771" filterUnits="userSpaceOnUse" color-interpolation-filters="sRGB">
<feFlood flood-opacity="0" result="BackgroundImageFix"/>
<feColorMatrix in="SourceAlpha" type="matrix" values="0 0 0 0 0 0 0 0 0 0 0 0 0 0 0 0 0 0 127 0" result="hardAlpha"/>
<feOffset dx="2.30956" dy="0.461913"/>
<feGaussianBlur stdDeviation="2"/>
<feColorMatrix type="matrix" values="0 0 0 0 0.718056 0 0 0 0 0.806834 0 0 0 0 0.979167 0 0 0 0.5 0"/>
<feBlend mode="normal" in2="BackgroundImageFix" result="effect1_dropShadow_134_21"/>
<feBlend mode="normal" in="SourceGraphic" in2="effect1_dropShadow_134_21" result="shape"/>
</filter>
<linearGradient id="paint0_linear_134_21" x1="37.985" y1="28.9946" x2="53.2378" y2="73.1562" gradientUnits="userSpaceOnUse">
<stop stop-color="white" stop-opacity="0.95"/>
<stop offset="1" stop-color="#BCDBFF" stop-opacity="0.5"/>
</linearGradient>
</defs>
</svg>
