<svg width="90" height="80" viewBox="0 0 90 80" fill="none" xmlns="http://www.w3.org/2000/svg">
<g filter="url(#filter0_d_213_1878)">
<path fill-rule="evenodd" clip-rule="evenodd" d="M58.9999 37.1678C56.7308 38.1428 54.2299 38.6829 51.6026 38.6829C41.2634 38.6829 32.8819 30.3188 32.8819 20.0011C32.8819 16.7377 33.7204 13.6697 35.1941 11C23.7789 11.9594 14.814 21.5095 14.814 33.1491C14.814 45.4254 24.7866 55.3774 37.0885 55.3774C48.0153 55.3774 57.1045 47.5258 58.9999 37.1678Z" fill="#EEB139"/>
</g>
<g filter="url(#filter1_i_213_1878)">
<path d="M45.1255 14.8701C43.7223 15.4919 43.1746 16.0174 42.6727 17.3178C42.2729 16.0576 41.7813 15.4954 40.2199 14.8701C41.8261 14.3479 42.2621 13.7433 42.6727 12.4224C43.1772 13.6398 43.4888 14.3042 45.1255 14.8701Z" fill="#EEB139"/>
</g>
<g filter="url(#filter2_i_213_1878)">
<path d="M41.6343 26.9964C40.6182 27.4467 40.2216 27.8272 39.8581 28.7689C39.5686 27.8563 39.2126 27.4492 38.0819 26.9964C39.2451 26.6182 39.5608 26.1804 39.8581 25.2239C40.2235 26.1055 40.4491 26.5866 41.6343 26.9964Z" fill="#EEB139"/>
</g>
<g filter="url(#filter3_i_213_1878)">
<path d="M13.7095 20.1751C12.5268 20.6992 12.0652 21.1421 11.6421 22.2382C11.3051 21.1759 10.8908 20.7021 9.57468 20.1751C10.9286 19.7349 11.296 19.2253 11.6421 18.112C12.0673 19.1381 12.33 19.6981 13.7095 20.1751Z" fill="#EEB139"/>
</g>
<g filter="url(#filter4_f_213_1878)">
<path d="M29.4052 29.6961C32.0244 25.8855 31.9212 21.2724 29.1747 19.3925C26.4282 17.5125 22.0785 19.0776 19.4593 22.8882C16.8401 26.6988 16.9433 31.3119 19.6898 33.1918C22.4363 35.0718 26.786 33.5067 29.4052 29.6961Z" fill="#FFED8E" fill-opacity="0.72"/>
</g>
<g filter="url(#filter5_d_213_1878)">
<path fill-rule="evenodd" clip-rule="evenodd" d="M73.0139 47.7532C73.1472 46.8458 73.2162 45.9174 73.2162 44.973C73.2162 34.4945 64.7217 26 54.2432 26C46.6663 26 40.1267 30.4415 37.086 36.863C34.7369 34.9386 31.7331 33.7838 28.4595 33.7838C20.9364 33.7838 14.8378 39.8824 14.8378 47.4054C14.8378 47.7903 14.8538 48.1715 14.8851 48.5484C11.394 50.3112 9 53.9301 9 58.1081C9 64.019 13.7918 68.8108 19.7027 68.8108H70.2973C76.2082 68.8108 81 64.019 81 58.1081C81 53.1358 77.6093 48.9555 73.0139 47.7532Z" fill="url(#paint0_linear_213_1878)"/>
</g>
<defs>
<filter id="filter0_d_213_1878" x="9.52808" y="5.71412" width="54.7578" height="54.9491" filterUnits="userSpaceOnUse" color-interpolation-filters="sRGB">
<feFlood flood-opacity="0" result="BackgroundImageFix"/>
<feColorMatrix in="SourceAlpha" type="matrix" values="0 0 0 0 0 0 0 0 0 0 0 0 0 0 0 0 0 0 127 0" result="hardAlpha"/>
<feOffset/>
<feGaussianBlur stdDeviation="2.64294"/>
<feColorMatrix type="matrix" values="0 0 0 0 0.9925 0 0 0 0 0.931646 0 0 0 0 0.5955 0 0 0 0.6 0"/>
<feBlend mode="normal" in2="BackgroundImageFix" result="effect1_dropShadow_213_1878"/>
<feBlend mode="normal" in="SourceGraphic" in2="effect1_dropShadow_213_1878" result="shape"/>
</filter>
<filter id="filter1_i_213_1878" x="40.2197" y="12.4224" width="4.90576" height="5.59455" filterUnits="userSpaceOnUse" color-interpolation-filters="sRGB">
<feFlood flood-opacity="0" result="BackgroundImageFix"/>
<feBlend mode="normal" in="SourceGraphic" in2="BackgroundImageFix" result="shape"/>
<feColorMatrix in="SourceAlpha" type="matrix" values="0 0 0 0 0 0 0 0 0 0 0 0 0 0 0 0 0 0 127 0" result="hardAlpha"/>
<feOffset dy="0.699121"/>
<feGaussianBlur stdDeviation="0.34956"/>
<feComposite in2="hardAlpha" operator="arithmetic" k2="-1" k3="1"/>
<feColorMatrix type="matrix" values="0 0 0 0 1 0 0 0 0 1 0 0 0 0 1 0 0 0 0.44 0"/>
<feBlend mode="normal" in2="shape" result="effect1_innerShadow_213_1878"/>
</filter>
<filter id="filter2_i_213_1878" x="38.082" y="25.2239" width="3.55225" height="4.2441" filterUnits="userSpaceOnUse" color-interpolation-filters="sRGB">
<feFlood flood-opacity="0" result="BackgroundImageFix"/>
<feBlend mode="normal" in="SourceGraphic" in2="BackgroundImageFix" result="shape"/>
<feColorMatrix in="SourceAlpha" type="matrix" values="0 0 0 0 0 0 0 0 0 0 0 0 0 0 0 0 0 0 127 0" result="hardAlpha"/>
<feOffset dy="0.699121"/>
<feGaussianBlur stdDeviation="0.34956"/>
<feComposite in2="hardAlpha" operator="arithmetic" k2="-1" k3="1"/>
<feColorMatrix type="matrix" values="0 0 0 0 1 0 0 0 0 1 0 0 0 0 1 0 0 0 0.44 0"/>
<feBlend mode="normal" in2="shape" result="effect1_innerShadow_213_1878"/>
</filter>
<filter id="filter3_i_213_1878" x="9.57471" y="18.112" width="4.13477" height="4.82532" filterUnits="userSpaceOnUse" color-interpolation-filters="sRGB">
<feFlood flood-opacity="0" result="BackgroundImageFix"/>
<feBlend mode="normal" in="SourceGraphic" in2="BackgroundImageFix" result="shape"/>
<feColorMatrix in="SourceAlpha" type="matrix" values="0 0 0 0 0 0 0 0 0 0 0 0 0 0 0 0 0 0 127 0" result="hardAlpha"/>
<feOffset dy="0.699121"/>
<feGaussianBlur stdDeviation="0.34956"/>
<feComposite in2="hardAlpha" operator="arithmetic" k2="-1" k3="1"/>
<feColorMatrix type="matrix" values="0 0 0 0 1 0 0 0 0 1 0 0 0 0 1 0 0 0 0.44 0"/>
<feBlend mode="normal" in2="shape" result="effect1_innerShadow_213_1878"/>
</filter>
<filter id="filter4_f_213_1878" x="13.1258" y="14.162" width="22.6132" height="24.2603" filterUnits="userSpaceOnUse" color-interpolation-filters="sRGB">
<feFlood flood-opacity="0" result="BackgroundImageFix"/>
<feBlend mode="normal" in="SourceGraphic" in2="BackgroundImageFix" result="shape"/>
<feGaussianBlur stdDeviation="2.21738" result="effect1_foregroundBlur_213_1878"/>
</filter>
<filter id="filter5_d_213_1878" x="7.05405" y="23.0811" width="79.7838" height="50.5946" filterUnits="userSpaceOnUse" color-interpolation-filters="sRGB">
<feFlood flood-opacity="0" result="BackgroundImageFix"/>
<feColorMatrix in="SourceAlpha" type="matrix" values="0 0 0 0 0 0 0 0 0 0 0 0 0 0 0 0 0 0 127 0" result="hardAlpha"/>
<feOffset dx="1.94595" dy="0.972973"/>
<feGaussianBlur stdDeviation="1.94595"/>
<feColorMatrix type="matrix" values="0 0 0 0 0.619792 0 0 0 0 0.74623 0 0 0 0 0.991667 0 0 0 0.4 0"/>
<feBlend mode="normal" in2="BackgroundImageFix" result="effect1_dropShadow_213_1878"/>
<feBlend mode="normal" in="SourceGraphic" in2="effect1_dropShadow_213_1878" result="shape"/>
</filter>
<linearGradient id="paint0_linear_213_1878" x1="38.16" y1="31.3942" x2="51.4042" y2="71.4981" gradientUnits="userSpaceOnUse">
<stop stop-color="white" stop-opacity="0.95"/>
<stop offset="1" stop-color="#B1D5FF" stop-opacity="0.5"/>
</linearGradient>
</defs>
</svg>
