<svg width="90" height="80" viewBox="0 0 90 80" fill="none" xmlns="http://www.w3.org/2000/svg">
<path d="M29.4399 56.7205C27.9869 56.7207 26.5375 56.5737 25.1141 56.2817C22.367 55.7158 19.7587 54.6127 17.4392 53.0356C14.2258 50.8575 11.6584 47.8541 10.0069 44.3409C8.35531 40.8278 7.6806 36.9346 8.05362 33.0705C8.42665 29.2065 9.83365 25.5143 12.1267 22.3819C14.4198 19.2496 17.5144 16.7927 21.0851 15.2696C22.3831 14.7183 23.7328 14.2974 25.1141 14.0132C27.3619 13.5532 29.6687 13.4542 31.9477 13.7201C31.4625 14.7813 31.0914 15.8911 30.8405 17.0306C30.5825 18.2064 30.4526 19.4067 30.4529 20.6105C30.4476 23.9148 31.4341 27.1446 33.2849 29.882C34.478 31.6475 35.9984 33.168 37.7638 34.3611C38.6515 34.9606 39.5951 35.4726 40.5815 35.8901C42.6235 36.7543 44.8189 37.1975 47.0363 37.1931C48.3192 37.194 49.5979 37.0468 50.8471 36.7543C50.5527 40.8126 49.1144 44.7044 46.6989 47.9788C45.9175 49.0381 45.0414 50.0242 44.0814 50.9249C40.1188 54.6535 34.881 56.7268 29.4399 56.7205V56.7205Z" fill="#713FFD"/>
<g filter="url(#filter0_f_141_6581)">
<path d="M24.3961 30.682C28.7007 26.8062 30.0407 21.2769 27.3892 18.3321C24.7376 15.3873 19.0986 16.142 14.7941 20.0178C10.4895 23.8936 9.1495 29.4229 11.801 32.3677C14.4526 35.3125 20.0916 34.5578 24.3961 30.682Z" fill="#A586FC" fill-opacity="0.72"/>
</g>
<path d="M19.009 8L19.725 9.77028L21.665 10.425L19.725 11.0798L19.009 12.8501L18.2931 11.0798L16.353 10.425L18.2931 9.77028L19.009 8Z" fill="url(#paint0_linear_141_6581)"/>
<path d="M51.1121 49.3412L51.7045 50.7731L53.3061 51.3043L51.7045 51.8355L51.1121 53.2675L50.5197 51.8355L48.918 51.3043L50.5197 50.7731L51.1121 49.3412Z" fill="url(#paint1_linear_141_6581)"/>
<path d="M41.5294 13.512L42.5248 14.8163L44.2988 14.9217L42.8155 15.9005L42.6061 17.5278L41.6107 16.2236L39.8367 16.1181L41.32 15.1393L41.5294 13.512Z" fill="url(#paint2_linear_141_6581)"/>
<path d="M5.02075 45.1224L6.09373 46.133L7.76394 45.9662L6.48385 47.052L6.46562 48.5258L5.39264 47.5152L3.72243 47.682L5.00253 46.5963L5.02075 45.1224Z" fill="url(#paint3_linear_141_6581)"/>
<path d="M40.5907 27.972L39.4107 28.2115L38.7123 29.4345L38.6208 28.0292L37.6652 27.2965L38.8453 27.057L39.5436 25.834L39.6351 27.2393L40.5907 27.972Z" fill="url(#paint4_linear_141_6581)"/>
<g filter="url(#filter1_d_141_6581)">
<path d="M56.7855 72.5226C56.339 72.5585 55.8881 72.5766 55.4328 72.5769H23.6707C21.4844 72.5851 19.318 72.1615 17.2958 71.3305C15.2736 70.4995 13.4353 69.2774 11.8865 67.7343C10.3377 66.1912 9.10875 64.3576 8.2702 62.3385C7.43165 60.3194 7 58.1546 7 55.9683C7 53.7819 7.43165 51.6172 8.2702 49.5981C9.10875 47.5789 10.3377 45.7453 11.8865 44.2022C13.4353 42.6591 15.2736 41.437 17.2958 40.606C19.318 39.775 21.4844 39.3514 23.6707 39.3596H35.5132C39.3527 30.9124 48.1953 24.9999 58.4897 24.9999C72.3071 24.9999 83.5085 35.6504 83.5085 48.7884C83.5085 61.9264 72.3071 72.5769 58.4897 72.5769C57.9169 72.5769 57.3489 72.5588 56.7855 72.5226Z" fill="url(#paint5_linear_141_6581)"/>
</g>
<defs>
<filter id="filter0_f_141_6581" x="6.43994" y="12.5357" width="26.3105" height="25.6283" filterUnits="userSpaceOnUse" color-interpolation-filters="sRGB">
<feFlood flood-opacity="0" result="BackgroundImageFix"/>
<feBlend mode="normal" in="SourceGraphic" in2="BackgroundImageFix" result="shape"/>
<feGaussianBlur stdDeviation="2" result="effect1_foregroundBlur_141_6581"/>
</filter>
<filter id="filter1_d_141_6581" x="5.30956" y="21.4618" width="84.5083" height="55.5771" filterUnits="userSpaceOnUse" color-interpolation-filters="sRGB">
<feFlood flood-opacity="0" result="BackgroundImageFix"/>
<feColorMatrix in="SourceAlpha" type="matrix" values="0 0 0 0 0 0 0 0 0 0 0 0 0 0 0 0 0 0 127 0" result="hardAlpha"/>
<feOffset dx="2.30956" dy="0.461913"/>
<feGaussianBlur stdDeviation="2"/>
<feColorMatrix type="matrix" values="0 0 0 0 0.689883 0 0 0 0 0.785691 0 0 0 0 0.971667 0 0 0 0.28 0"/>
<feBlend mode="normal" in2="BackgroundImageFix" result="effect1_dropShadow_141_6581"/>
<feBlend mode="normal" in="SourceGraphic" in2="effect1_dropShadow_141_6581" result="shape"/>
</filter>
<linearGradient id="paint0_linear_141_6581" x1="19.009" y1="8" x2="19.009" y2="12.8501" gradientUnits="userSpaceOnUse">
<stop stop-color="#6B38FC"/>
<stop offset="1" stop-color="#9F7EFD"/>
</linearGradient>
<linearGradient id="paint1_linear_141_6581" x1="51.1121" y1="49.3412" x2="51.1121" y2="53.2675" gradientUnits="userSpaceOnUse">
<stop stop-color="#6B38FC"/>
<stop offset="1" stop-color="#9F7EFD"/>
</linearGradient>
<linearGradient id="paint2_linear_141_6581" x1="41.5294" y1="13.512" x2="42.6061" y2="17.5278" gradientUnits="userSpaceOnUse">
<stop stop-color="#6B38FC"/>
<stop offset="1" stop-color="#9F7EFD"/>
</linearGradient>
<linearGradient id="paint3_linear_141_6581" x1="5.02075" y1="45.1224" x2="6.46562" y2="48.5258" gradientUnits="userSpaceOnUse">
<stop stop-color="#6B38FC"/>
<stop offset="1" stop-color="#9F7EFD"/>
</linearGradient>
<linearGradient id="paint4_linear_141_6581" x1="40.5907" y1="27.972" x2="37.6652" y2="27.2965" gradientUnits="userSpaceOnUse">
<stop stop-color="#6B38FC"/>
<stop offset="1" stop-color="#9F7EFD"/>
</linearGradient>
<linearGradient id="paint5_linear_141_6581" x1="37.986" y1="30.9946" x2="53.2388" y2="75.1562" gradientUnits="userSpaceOnUse">
<stop stop-color="white" stop-opacity="0.95"/>
<stop offset="1" stop-color="#B1D5FF" stop-opacity="0.5"/>
</linearGradient>
</defs>
</svg>
