<svg width="90" height="80" viewBox="0 0 90 80" fill="none" xmlns="http://www.w3.org/2000/svg">
<g filter="url(#filter0_d_134_45)">
<path d="M55.7855 62.5228C55.339 62.5586 54.8881 62.5767 54.4328 62.577H22.6707C20.4844 62.5852 18.318 62.1616 16.2958 61.3306C14.2736 60.4996 12.4353 59.2775 10.8865 57.7344C9.33768 56.1914 8.10875 54.3577 7.2702 52.3386C6.43165 50.3195 6 48.1547 6 45.9684C6 43.7821 6.43165 41.6173 7.2702 39.5982C8.10875 37.5791 9.33768 35.7454 10.8865 34.2023C12.4353 32.6593 14.2736 31.4372 16.2958 30.6062C18.318 29.7751 20.4844 29.3516 22.6707 29.3597H34.5132C38.3527 20.9125 47.1953 15 57.4897 15C71.3071 15 82.5085 25.6506 82.5085 38.7885C82.5085 51.9265 71.3071 62.577 57.4897 62.577C56.9169 62.577 56.3489 62.5589 55.7855 62.5228Z" fill="url(#paint0_linear_134_45)"/>
</g>
<defs>
<filter id="filter0_d_134_45" x="4.30956" y="11.4619" width="84.5083" height="55.5771" filterUnits="userSpaceOnUse" color-interpolation-filters="sRGB">
<feFlood flood-opacity="0" result="BackgroundImageFix"/>
<feColorMatrix in="SourceAlpha" type="matrix" values="0 0 0 0 0 0 0 0 0 0 0 0 0 0 0 0 0 0 127 0" result="hardAlpha"/>
<feOffset dx="2.30956" dy="0.461913"/>
<feGaussianBlur stdDeviation="2"/>
<feColorMatrix type="matrix" values="0 0 0 0 0.718056 0 0 0 0 0.806834 0 0 0 0 0.979167 0 0 0 0.5 0"/>
<feBlend mode="normal" in2="BackgroundImageFix" result="effect1_dropShadow_134_45"/>
<feBlend mode="normal" in="SourceGraphic" in2="effect1_dropShadow_134_45" result="shape"/>
</filter>
<linearGradient id="paint0_linear_134_45" x1="36.986" y1="20.9947" x2="52.2388" y2="65.1563" gradientUnits="userSpaceOnUse">
<stop stop-color="white" stop-opacity="0.95"/>
<stop offset="1" stop-color="#BCDBFF" stop-opacity="0.5"/>
</linearGradient>
</defs>
</svg>
