<svg width="90" height="80" viewBox="0 0 90 80" fill="none" xmlns="http://www.w3.org/2000/svg">
<g filter="url(#filter0_d_142_6664)">
<path d="M49.2591 50.1567C48.8442 50.19 48.4252 50.2068 48.0022 50.2071H18.4899C16.4585 50.2147 14.4455 49.8211 12.5665 49.0489C10.6876 48.2768 8.97952 47.1413 7.5404 45.7075C6.10127 44.2737 4.95938 42.5699 4.18023 40.6938C3.40108 38.8177 3 36.8063 3 34.7748C3 32.7434 3.40108 30.7319 4.18023 28.8558C4.95938 26.9798 6.10127 25.276 7.5404 23.8422C8.97952 22.4084 10.6876 21.2729 12.5665 20.5007C14.4455 19.7286 16.4585 19.335 18.4899 19.3426H29.4936C33.0611 11.4937 41.2774 6 50.8426 6C63.6813 6 74.0893 15.8962 74.0893 28.1035C74.0893 40.3109 63.6813 50.2071 50.8426 50.2071C50.3104 50.2071 49.7826 50.1903 49.2591 50.1567Z" fill="url(#paint0_linear_142_6664)"/>
</g>
<g filter="url(#filter1_d_142_6664)">
<path d="M57.7818 62.5237C57.3433 62.559 56.9005 62.5767 56.4534 62.577H25.2628C23.1159 62.585 20.9885 62.1691 19.0026 61.353C17.0168 60.537 15.2116 59.3369 13.6907 57.8216C12.1697 56.3063 10.9629 54.5056 10.1394 52.5228C9.31598 50.54 8.89209 48.4142 8.89209 46.2672C8.89209 44.1202 9.31598 41.9944 10.1394 40.0116C10.9629 38.0289 12.1697 36.2282 13.6907 34.7129C15.2116 33.1976 17.0168 31.9975 19.0026 31.1814C20.9885 30.3653 23.1159 29.9494 25.2628 29.9574H36.8923C40.6626 21.6622 49.3461 15.856 59.4553 15.856C73.0242 15.856 84.024 26.315 84.024 39.2165C84.024 52.1181 73.0242 62.577 59.4553 62.577C58.8929 62.577 58.335 62.5593 57.7818 62.5237Z" fill="url(#paint1_linear_142_6664)"/>
</g>
<defs>
<filter id="filter0_d_142_6664" x="2.30956" y="3.46191" width="77.0894" height="50.2072" filterUnits="userSpaceOnUse" color-interpolation-filters="sRGB">
<feFlood flood-opacity="0" result="BackgroundImageFix"/>
<feColorMatrix in="SourceAlpha" type="matrix" values="0 0 0 0 0 0 0 0 0 0 0 0 0 0 0 0 0 0 127 0" result="hardAlpha"/>
<feOffset dx="2.30956" dy="0.461913"/>
<feGaussianBlur stdDeviation="1.5"/>
<feColorMatrix type="matrix" values="0 0 0 0 0.718056 0 0 0 0 0.806834 0 0 0 0 0.979167 0 0 0 0.28 0"/>
<feBlend mode="normal" in2="BackgroundImageFix" result="effect1_dropShadow_142_6664"/>
<feBlend mode="normal" in="SourceGraphic" in2="effect1_dropShadow_142_6664" result="shape"/>
</filter>
<filter id="filter1_d_142_6664" x="8.20165" y="13.318" width="81.1318" height="52.7211" filterUnits="userSpaceOnUse" color-interpolation-filters="sRGB">
<feFlood flood-opacity="0" result="BackgroundImageFix"/>
<feColorMatrix in="SourceAlpha" type="matrix" values="0 0 0 0 0 0 0 0 0 0 0 0 0 0 0 0 0 0 127 0" result="hardAlpha"/>
<feOffset dx="2.30956" dy="0.461913"/>
<feGaussianBlur stdDeviation="1.5"/>
<feColorMatrix type="matrix" values="0 0 0 0 0.718056 0 0 0 0 0.806834 0 0 0 0 0.979167 0 0 0 0.28 0"/>
<feBlend mode="normal" in2="BackgroundImageFix" result="effect1_dropShadow_142_6664"/>
<feBlend mode="normal" in="SourceGraphic" in2="effect1_dropShadow_142_6664" result="shape"/>
</filter>
<linearGradient id="paint0_linear_142_6664" x1="31.7912" y1="11.5701" x2="45.9636" y2="52.6036" gradientUnits="userSpaceOnUse">
<stop stop-color="#A5CCF9" stop-opacity="0.9"/>
<stop offset="1" stop-color="#95BEEF" stop-opacity="0.6"/>
<stop offset="1" stop-color="#83B6F2" stop-opacity="0.6"/>
</linearGradient>
<linearGradient id="paint1_linear_142_6664" x1="39.3205" y1="21.7429" x2="54.2989" y2="65.1099" gradientUnits="userSpaceOnUse">
<stop stop-color="white" stop-opacity="0.95"/>
<stop offset="1" stop-color="#B1D5FF" stop-opacity="0.5"/>
</linearGradient>
</defs>
</svg>
