<svg width="90" height="80" viewBox="0 0 90 80" fill="none" xmlns="http://www.w3.org/2000/svg">
<g filter="url(#filter0_d_145_6821)">
<path d="M28.5444 49.5688C28.7034 49.713 26.1699 55.9453 24.5471 57.8121C22.9243 59.679 20.8012 60.4892 19.8046 59.6228C18.808 58.7565 19.3147 56.5416 20.9377 54.6745C22.5607 52.8075 28.3855 49.4247 28.5444 49.5688Z" fill="#309EFC"/>
<path d="M21.2267 55.9288C21.3897 56.1897 21.9541 56.1312 22.4873 55.798C23.0205 55.4648 23.3206 54.9832 23.1575 54.7223C22.9945 54.4614 22.4301 54.5199 21.8969 54.8531C21.3637 55.1863 21.0636 55.6679 21.2267 55.9288Z" fill="white"/>
<path d="M45.7007 49.5688C45.8596 49.713 43.3262 55.9453 41.7033 57.8121C40.0805 59.679 37.9575 60.4892 36.9609 59.6228C35.9642 58.7565 36.4709 56.5416 38.0939 54.6745C39.7169 52.8075 45.5418 49.4247 45.7007 49.5688Z" fill="#309EFC"/>
<path d="M38.3839 55.9288C38.5469 56.1897 39.1114 56.1312 39.6445 55.798C40.1777 55.4648 40.4778 54.9832 40.3147 54.7223C40.1517 54.4614 39.5873 54.5199 39.0541 54.8531C38.5209 55.1863 38.2209 55.6679 38.3839 55.9288Z" fill="white"/>
<path d="M62.8579 49.5689C63.0168 49.713 60.4834 55.9453 58.8606 57.8122C57.2377 59.679 55.1147 60.4893 54.1181 59.6229C53.1215 58.7565 53.6282 56.5416 55.2512 54.6746C56.8742 52.8075 62.699 49.4247 62.8579 49.5689Z" fill="#309EFC"/>
<path d="M55.5402 55.9287C55.7032 56.1897 56.2676 56.1311 56.8008 55.7979C57.334 55.4648 57.634 54.9831 57.471 54.7222C57.308 54.4613 56.7435 54.5199 56.2104 54.853C55.6772 55.1862 55.3771 55.6678 55.5402 55.9287Z" fill="white"/>
<path d="M49.9219 61.8317C50.0808 61.9758 47.5474 68.2081 45.9245 70.075C44.3017 71.9418 42.1787 72.7521 41.1821 71.8857C40.1854 71.0194 40.6921 68.8044 42.3151 66.9374C43.9381 65.0703 49.763 61.6875 49.9219 61.8317Z" fill="#309EFC"/>
<path d="M42.666 68.2458C42.8467 68.5221 43.4343 68.4837 43.9785 68.1601C44.5227 67.8365 44.8174 67.3502 44.6367 67.074C44.456 66.7977 43.8684 66.8361 43.3242 67.1597C42.78 67.4833 42.4853 67.9696 42.666 68.2458Z" fill="white"/>
<path d="M30.8838 61.8316C31.0427 61.9757 28.5093 68.2081 26.8864 70.0749C25.2636 71.9418 23.1406 72.752 22.144 71.8856C21.1473 71.0193 21.654 68.8043 23.277 66.9373C24.9 65.0703 30.7249 61.6874 30.8838 61.8316Z" fill="#309EFC"/>
<path d="M23.5655 68.1916C23.7286 68.4525 24.293 68.3939 24.8262 68.0608C25.3594 67.7276 25.6594 67.246 25.4964 66.9851C25.3333 66.7242 24.7689 66.7827 24.2358 67.1159C23.7026 67.4491 23.4025 67.9307 23.5655 68.1916Z" fill="white"/>
</g>
<g filter="url(#filter1_d_145_6821)">
<path d="M55.7855 53.5228C55.339 53.5586 54.8881 53.5767 54.4328 53.577H22.6707C20.4844 53.5852 18.318 53.1616 16.2958 52.3306C14.2736 51.4996 12.4353 50.2775 10.8865 48.7344C9.33768 47.1914 8.10875 45.3577 7.2702 43.3386C6.43165 41.3195 6 39.1547 6 36.9684C6 34.7821 6.43165 32.6173 7.2702 30.5982C8.10875 28.5791 9.33768 26.7454 10.8865 25.2023C12.4353 23.6593 14.2736 22.4372 16.2958 21.6062C18.318 20.7751 20.4844 20.3516 22.6707 20.3597H34.5132C38.3527 11.9125 47.1953 6 57.4897 6C71.3071 6 82.5085 16.6506 82.5085 29.7885C82.5085 42.9265 71.3071 53.577 57.4897 53.577C56.9169 53.577 56.3489 53.5589 55.7855 53.5228Z" fill="url(#paint0_linear_145_6821)"/>
</g>
<defs>
<filter id="filter0_d_145_6821" x="18.618" y="47.0795" width="49.4454" height="28.5428" filterUnits="userSpaceOnUse" color-interpolation-filters="sRGB">
<feFlood flood-opacity="0" result="BackgroundImageFix"/>
<feColorMatrix in="SourceAlpha" type="matrix" values="0 0 0 0 0 0 0 0 0 0 0 0 0 0 0 0 0 0 127 0" result="hardAlpha"/>
<feOffset dx="2.26111" dy="0.452222"/>
<feGaussianBlur stdDeviation="1.46853"/>
<feColorMatrix type="matrix" values="0 0 0 0 0.175755 0 0 0 0 0.328783 0 0 0 0 0.625833 0 0 0 0.5 0"/>
<feBlend mode="normal" in2="BackgroundImageFix" result="effect1_dropShadow_145_6821"/>
<feBlend mode="normal" in="SourceGraphic" in2="effect1_dropShadow_145_6821" result="shape"/>
</filter>
<filter id="filter1_d_145_6821" x="4.30956" y="2.46191" width="84.5083" height="55.5771" filterUnits="userSpaceOnUse" color-interpolation-filters="sRGB">
<feFlood flood-opacity="0" result="BackgroundImageFix"/>
<feColorMatrix in="SourceAlpha" type="matrix" values="0 0 0 0 0 0 0 0 0 0 0 0 0 0 0 0 0 0 127 0" result="hardAlpha"/>
<feOffset dx="2.30956" dy="0.461913"/>
<feGaussianBlur stdDeviation="2"/>
<feColorMatrix type="matrix" values="0 0 0 0 0.718056 0 0 0 0 0.806834 0 0 0 0 0.979167 0 0 0 0.5 0"/>
<feBlend mode="normal" in2="BackgroundImageFix" result="effect1_dropShadow_145_6821"/>
<feBlend mode="normal" in="SourceGraphic" in2="effect1_dropShadow_145_6821" result="shape"/>
</filter>
<linearGradient id="paint0_linear_145_6821" x1="36.986" y1="11.9947" x2="52.2388" y2="56.1563" gradientUnits="userSpaceOnUse">
<stop stop-color="white" stop-opacity="0.95"/>
<stop offset="1" stop-color="#BCDBFF" stop-opacity="0.5"/>
</linearGradient>
</defs>
</svg>
