<svg width="90" height="83" viewBox="0 0 90 83" fill="none" xmlns="http://www.w3.org/2000/svg">
<g filter="url(#filter0_d_173_411)">
<path d="M29.8096 57.6083C29.9725 57.7561 27.3753 64.1453 25.7116 66.0591C24.0479 67.9729 21.8715 68.8036 20.8498 67.9154C19.8281 67.0272 20.3475 64.7565 22.0114 62.8425C23.6752 60.9285 29.6467 57.4605 29.8096 57.6083Z" fill="#309EFC"/>
<path d="M22.3081 64.1284C22.4752 64.3959 23.0538 64.3358 23.6004 63.9943C24.147 63.6527 24.4547 63.159 24.2875 62.8915C24.1204 62.624 23.5418 62.6841 22.9951 63.0256C22.4485 63.3672 22.1409 63.8609 22.3081 64.1284Z" fill="white"/>
<path d="M47.3975 57.6083C47.5604 57.7561 44.9632 64.1453 43.2995 66.0591C41.6358 67.9729 39.4594 68.8036 38.4377 67.9154C37.4159 67.0272 37.9354 64.7565 39.5993 62.8425C41.2631 60.9285 47.2346 57.4605 47.3975 57.6083Z" fill="#309EFC"/>
<path d="M39.8974 64.1284C40.0646 64.3959 40.6432 64.3358 41.1898 63.9943C41.7364 63.6527 42.044 63.159 41.8769 62.8915C41.7097 62.624 41.1311 62.6841 40.5845 63.0256C40.0379 63.3672 39.7303 63.8609 39.8974 64.1284Z" fill="white"/>
<path d="M64.9868 57.6084C65.1498 57.7561 62.5525 64.1453 60.8889 66.0592C59.2252 67.973 57.0487 68.8036 56.027 67.9155C55.0053 67.0273 55.5248 64.7566 57.1886 62.8426C58.8525 60.9285 64.8239 57.4606 64.9868 57.6084Z" fill="#309EFC"/>
<path d="M57.4853 64.1283C57.6525 64.3958 58.2311 64.3358 58.7777 63.9942C59.3243 63.6527 59.6319 63.1589 59.4648 62.8914C59.2976 62.6239 58.719 62.684 58.1724 63.0256C57.6258 63.3671 57.3182 63.8608 57.4853 64.1283Z" fill="white"/>
<path d="M51.7251 68.0846C51.888 68.2324 49.2908 74.6216 47.6272 76.5354C45.9635 78.4493 43.787 79.2799 42.7653 78.3917C41.7436 77.5035 42.263 75.2329 43.9269 73.3188C45.5907 71.4048 51.5622 67.9368 51.7251 68.0846Z" fill="#309EFC"/>
<path d="M44.2867 74.6602C44.4719 74.9434 45.0744 74.9041 45.6323 74.5723C46.1902 74.2406 46.4923 73.7421 46.3071 73.4589C46.1218 73.1757 45.5194 73.215 44.9615 73.5467C44.4036 73.8785 44.1015 74.377 44.2867 74.6602Z" fill="white"/>
<path d="M32.208 68.0845C32.3709 68.2323 29.7737 74.6215 28.1101 76.5353C26.4464 78.4492 24.2699 79.2798 23.2482 78.3916C22.2265 77.5035 22.746 75.2328 24.4098 73.3187C26.0737 71.4047 32.0451 67.9367 32.208 68.0845Z" fill="#309EFC"/>
<path d="M24.7055 74.6046C24.8727 74.8721 25.4513 74.812 25.9979 74.4705C26.5445 74.1289 26.8521 73.6352 26.685 73.3677C26.5178 73.1002 25.9392 73.1602 25.3926 73.5018C24.846 73.8434 24.5384 74.3371 24.7055 74.6046Z" fill="white"/>
</g>
<g filter="url(#filter1_d_173_411)">
<path d="M55.7855 62.5228C55.339 62.5586 54.8881 62.5767 54.4328 62.577H22.6707C20.4844 62.5852 18.318 62.1616 16.2958 61.3306C14.2736 60.4996 12.4353 59.2775 10.8865 57.7344C9.33768 56.1914 8.10875 54.3577 7.2702 52.3386C6.43165 50.3195 6 48.1547 6 45.9684C6 43.7821 6.43165 41.6173 7.2702 39.5982C8.10875 37.5791 9.33768 35.7454 10.8865 34.2023C12.4353 32.6593 14.2736 31.4372 16.2958 30.6062C18.318 29.7751 20.4844 29.3516 22.6707 29.3597H34.5132C38.3527 20.9125 47.1953 15 57.4897 15C71.3071 15 82.5085 25.6506 82.5085 38.7885C82.5085 51.9265 71.3071 62.577 57.4897 62.577C56.9169 62.577 56.3489 62.5589 55.7855 62.5228Z" fill="url(#paint0_linear_173_411)"/>
</g>
<defs>
<filter id="filter0_d_173_411" x="19.6502" y="55.1189" width="50.5421" height="27.0182" filterUnits="userSpaceOnUse" color-interpolation-filters="sRGB">
<feFlood flood-opacity="0" result="BackgroundImageFix"/>
<feColorMatrix in="SourceAlpha" type="matrix" values="0 0 0 0 0 0 0 0 0 0 0 0 0 0 0 0 0 0 127 0" result="hardAlpha"/>
<feOffset dx="2.26111" dy="0.452222"/>
<feGaussianBlur stdDeviation="1.46853"/>
<feColorMatrix type="matrix" values="0 0 0 0 0.175755 0 0 0 0 0.328783 0 0 0 0 0.625833 0 0 0 0.5 0"/>
<feBlend mode="normal" in2="BackgroundImageFix" result="effect1_dropShadow_173_411"/>
<feBlend mode="normal" in="SourceGraphic" in2="effect1_dropShadow_173_411" result="shape"/>
</filter>
<filter id="filter1_d_173_411" x="4.30956" y="11.4619" width="84.5083" height="55.5771" filterUnits="userSpaceOnUse" color-interpolation-filters="sRGB">
<feFlood flood-opacity="0" result="BackgroundImageFix"/>
<feColorMatrix in="SourceAlpha" type="matrix" values="0 0 0 0 0 0 0 0 0 0 0 0 0 0 0 0 0 0 127 0" result="hardAlpha"/>
<feOffset dx="2.30956" dy="0.461913"/>
<feGaussianBlur stdDeviation="2"/>
<feColorMatrix type="matrix" values="0 0 0 0 0.689883 0 0 0 0 0.785691 0 0 0 0 0.971667 0 0 0 0.28 0"/>
<feBlend mode="normal" in2="BackgroundImageFix" result="effect1_dropShadow_173_411"/>
<feBlend mode="normal" in="SourceGraphic" in2="effect1_dropShadow_173_411" result="shape"/>
</filter>
<linearGradient id="paint0_linear_173_411" x1="36.986" y1="20.9947" x2="52.2388" y2="65.1563" gradientUnits="userSpaceOnUse">
<stop stop-color="white" stop-opacity="0.95"/>
<stop offset="1" stop-color="#B1D5FF" stop-opacity="0.5"/>
</linearGradient>
</defs>
</svg>
