<svg width="90" height="80" viewBox="0 0 90 80" fill="none" xmlns="http://www.w3.org/2000/svg">
<g filter="url(#filter0_d_145_6784)">
<path d="M29.8915 56.0001C30.4206 56.0068 35.7829 64.3792 35.7829 67.6331C35.7829 69.1956 35.1622 70.6941 34.0574 71.799C32.9525 72.9039 31.454 73.5246 29.8915 73.5246C28.329 73.5246 26.8304 72.9039 25.7256 71.799C24.6207 70.6941 24 69.1956 24 67.6331C24 64.3792 29.3628 55.9943 29.8915 56.0001Z" fill="#309EFC"/>
<path d="M25.3994 69.8355C25.9881 70.0154 26.7362 69.275 27.0705 68.1817C27.4048 67.0884 27.1985 66.0562 26.6098 65.8762C26.0212 65.6963 25.273 66.4367 24.9387 67.53C24.6045 68.6233 24.8107 69.6555 25.3994 69.8355Z" fill="white"/>
<path d="M62.2953 56C62.8244 56.0067 68.1867 64.3791 68.1867 67.633C68.1867 69.1956 67.566 70.6941 66.4612 71.7989C65.3563 72.9038 63.8578 73.5245 62.2953 73.5245C60.7328 73.5245 59.2342 72.9038 58.1294 71.7989C57.0245 70.6941 56.4038 69.1956 56.4038 67.633C56.4038 64.3791 61.7666 55.9942 62.2953 56Z" fill="#309EFC"/>
<path d="M57.8032 69.8355C58.3919 70.0154 59.1401 69.275 59.4743 68.1817C59.8086 67.0884 59.6023 66.0562 59.0136 65.8762C58.425 65.6963 57.6768 66.4367 57.3425 67.53C57.0083 68.6233 57.2145 69.6555 57.8032 69.8355Z" fill="white"/>
<path d="M45.8705 42.4758C46.3996 42.4825 51.7619 50.8549 51.7619 54.1089C51.7619 55.6714 51.1412 57.1699 50.0364 58.2748C48.9315 59.3796 47.433 60.0003 45.8705 60.0003C44.308 60.0003 42.8094 59.3796 41.7046 58.2748C40.5997 57.1699 39.979 55.6714 39.979 54.1089C39.979 50.8549 45.3418 42.4701 45.8705 42.4758Z" fill="#309EFC"/>
<path d="M41.3784 56.3113C41.9671 56.4913 42.7153 55.7509 43.0495 54.6576C43.3838 53.5643 43.1775 52.5321 42.5888 52.3521C42.0002 52.1721 41.252 52.9125 40.9177 54.0059C40.5835 55.0992 40.7897 56.1314 41.3784 56.3113Z" fill="white"/>
</g>
<g filter="url(#filter1_d_145_6784)">
<path d="M55.7855 54.5228C55.339 54.5586 54.8881 54.5767 54.4328 54.577H22.6707C20.4844 54.5852 18.318 54.1616 16.2958 53.3306C14.2736 52.4996 12.4353 51.2775 10.8865 49.7344C9.33768 48.1914 8.10875 46.3577 7.2702 44.3386C6.43165 42.3195 6 40.1547 6 37.9684C6 35.7821 6.43165 33.6173 7.2702 31.5982C8.10875 29.5791 9.33768 27.7454 10.8865 26.2023C12.4353 24.6593 14.2736 23.4372 16.2958 22.6062C18.318 21.7751 20.4844 21.3516 22.6707 21.3597H34.5132C38.3527 12.9125 47.1953 7 57.4897 7C71.3071 7 82.5085 17.6506 82.5085 30.7885C82.5085 43.9265 71.3071 54.577 57.4897 54.577C56.9169 54.577 56.3489 54.5589 55.7855 54.5228Z" fill="url(#paint0_linear_145_6784)"/>
</g>
<defs>
<filter id="filter0_d_145_6784" x="23.3096" y="39.9377" width="50.1865" height="37.0487" filterUnits="userSpaceOnUse" color-interpolation-filters="sRGB">
<feFlood flood-opacity="0" result="BackgroundImageFix"/>
<feColorMatrix in="SourceAlpha" type="matrix" values="0 0 0 0 0 0 0 0 0 0 0 0 0 0 0 0 0 0 127 0" result="hardAlpha"/>
<feOffset dx="2.30956" dy="0.461913"/>
<feGaussianBlur stdDeviation="1.5"/>
<feColorMatrix type="matrix" values="0 0 0 0 0.175755 0 0 0 0 0.328783 0 0 0 0 0.625833 0 0 0 0.5 0"/>
<feBlend mode="normal" in2="BackgroundImageFix" result="effect1_dropShadow_145_6784"/>
<feBlend mode="normal" in="SourceGraphic" in2="effect1_dropShadow_145_6784" result="shape"/>
</filter>
<filter id="filter1_d_145_6784" x="4.30956" y="3.46191" width="84.5083" height="55.5771" filterUnits="userSpaceOnUse" color-interpolation-filters="sRGB">
<feFlood flood-opacity="0" result="BackgroundImageFix"/>
<feColorMatrix in="SourceAlpha" type="matrix" values="0 0 0 0 0 0 0 0 0 0 0 0 0 0 0 0 0 0 127 0" result="hardAlpha"/>
<feOffset dx="2.30956" dy="0.461913"/>
<feGaussianBlur stdDeviation="2"/>
<feColorMatrix type="matrix" values="0 0 0 0 0.718056 0 0 0 0 0.806834 0 0 0 0 0.979167 0 0 0 0.5 0"/>
<feBlend mode="normal" in2="BackgroundImageFix" result="effect1_dropShadow_145_6784"/>
<feBlend mode="normal" in="SourceGraphic" in2="effect1_dropShadow_145_6784" result="shape"/>
</filter>
<linearGradient id="paint0_linear_145_6784" x1="36.986" y1="12.9947" x2="52.2388" y2="57.1563" gradientUnits="userSpaceOnUse">
<stop stop-color="white" stop-opacity="0.95"/>
<stop offset="1" stop-color="#BCDBFF" stop-opacity="0.5"/>
</linearGradient>
</defs>
</svg>
