<svg width="90" height="82" viewBox="0 0 90 82" fill="none" xmlns="http://www.w3.org/2000/svg">
<g filter="url(#filter0_d_145_6784)">
<path d="M34.7582 66.6271C35.0957 66.6314 38.5163 71.9722 38.5163 74.0479C38.5163 75.0446 38.1204 76.0005 37.4156 76.7053C36.7108 77.4101 35.7549 77.806 34.7582 77.806C33.7614 77.806 32.8055 77.4101 32.1007 76.7053C31.3959 76.0005 31 75.0446 31 74.0479C31 71.9722 34.4209 66.6235 34.7582 66.6271Z" fill="#309EFC"/>
<path d="M31.8926 75.4527C32.2682 75.5675 32.7454 75.0952 32.9587 74.3978C33.1719 73.7004 33.0403 73.042 32.6648 72.9271C32.2893 72.8123 31.812 73.2846 31.5988 73.9821C31.3856 74.6795 31.5171 75.3379 31.8926 75.4527Z" fill="white"/>
<path d="M55.4286 66.6271C55.7661 66.6313 59.1868 71.9721 59.1868 74.0478C59.1868 75.0445 58.7908 76.0004 58.086 76.7052C57.3812 77.41 56.4253 77.806 55.4286 77.806C54.4319 77.806 53.4759 77.41 52.7712 76.7052C52.0664 76.0004 51.6704 75.0445 51.6704 74.0478C51.6704 71.9721 55.0913 66.6234 55.4286 66.6271Z" fill="#309EFC"/>
<path d="M52.5631 75.4527C52.9386 75.5675 53.4158 75.0952 53.6291 74.3978C53.8423 73.7004 53.7107 73.0419 53.3352 72.9271C52.9597 72.8123 52.4824 73.2846 52.2692 73.982C52.056 74.6795 52.1875 75.3379 52.5631 75.4527Z" fill="white"/>
<path d="M44.951 58C45.2886 58.0043 48.7092 63.345 48.7092 65.4207C48.7092 66.4175 48.3133 67.3734 47.6085 68.0782C46.9037 68.7829 45.9478 69.1789 44.951 69.1789C43.9543 69.1789 42.9984 68.7829 42.2936 68.0782C41.5888 67.3734 41.1929 66.4175 41.1929 65.4207C41.1929 63.345 44.6138 57.9963 44.951 58Z" fill="#309EFC"/>
<path d="M42.085 66.8257C42.4605 66.9405 42.9378 66.4682 43.151 65.7708C43.3643 65.0733 43.2327 64.4149 42.8572 64.3001C42.4817 64.1853 42.0044 64.6576 41.7912 65.355C41.5779 66.0524 41.7095 66.7109 42.085 66.8257Z" fill="white"/>
</g>
<g filter="url(#filter1_d_145_6784)">
<path d="M55.7855 62.5228C55.339 62.5586 54.8881 62.5767 54.4328 62.577H22.6707C20.4844 62.5852 18.318 62.1616 16.2958 61.3306C14.2736 60.4996 12.4353 59.2775 10.8865 57.7344C9.33768 56.1914 8.10875 54.3577 7.2702 52.3386C6.43165 50.3195 6 48.1547 6 45.9684C6 43.7821 6.43165 41.6173 7.2702 39.5982C8.10875 37.5791 9.33768 35.7454 10.8865 34.2023C12.4353 32.6593 14.2736 31.4372 16.2958 30.6062C18.318 29.7751 20.4844 29.3516 22.6707 29.3597H34.5132C38.3527 20.9125 47.1953 15 57.4897 15C71.3071 15 82.5085 25.6506 82.5085 38.7885C82.5085 51.9265 71.3071 62.577 57.4897 62.577C56.9169 62.577 56.3489 62.5589 55.7855 62.5228Z" fill="url(#paint0_linear_145_6784)"/>
</g>
<defs>
<filter id="filter0_d_145_6784" x="30.3096" y="55.4619" width="34.1865" height="25.806" filterUnits="userSpaceOnUse" color-interpolation-filters="sRGB">
<feFlood flood-opacity="0" result="BackgroundImageFix"/>
<feColorMatrix in="SourceAlpha" type="matrix" values="0 0 0 0 0 0 0 0 0 0 0 0 0 0 0 0 0 0 127 0" result="hardAlpha"/>
<feOffset dx="2.30956" dy="0.461913"/>
<feGaussianBlur stdDeviation="1.5"/>
<feColorMatrix type="matrix" values="0 0 0 0 0.175755 0 0 0 0 0.328783 0 0 0 0 0.625833 0 0 0 0.5 0"/>
<feBlend mode="normal" in2="BackgroundImageFix" result="effect1_dropShadow_145_6784"/>
<feBlend mode="normal" in="SourceGraphic" in2="effect1_dropShadow_145_6784" result="shape"/>
</filter>
<filter id="filter1_d_145_6784" x="4.30956" y="11.4619" width="84.5083" height="55.5771" filterUnits="userSpaceOnUse" color-interpolation-filters="sRGB">
<feFlood flood-opacity="0" result="BackgroundImageFix"/>
<feColorMatrix in="SourceAlpha" type="matrix" values="0 0 0 0 0 0 0 0 0 0 0 0 0 0 0 0 0 0 127 0" result="hardAlpha"/>
<feOffset dx="2.30956" dy="0.461913"/>
<feGaussianBlur stdDeviation="2"/>
<feColorMatrix type="matrix" values="0 0 0 0 0.718056 0 0 0 0 0.806834 0 0 0 0 0.979167 0 0 0 0.5 0"/>
<feBlend mode="normal" in2="BackgroundImageFix" result="effect1_dropShadow_145_6784"/>
<feBlend mode="normal" in="SourceGraphic" in2="effect1_dropShadow_145_6784" result="shape"/>
</filter>
<linearGradient id="paint0_linear_145_6784" x1="36.986" y1="20.9947" x2="52.2388" y2="65.1563" gradientUnits="userSpaceOnUse">
<stop stop-color="white" stop-opacity="0.95"/>
<stop offset="1" stop-color="#BCDBFF" stop-opacity="0.5"/>
</linearGradient>
</defs>
</svg>
