<svg width="90" height="83" viewBox="0 0 90 83" fill="none" xmlns="http://www.w3.org/2000/svg">
<g filter="url(#filter0_d_173_436)">
<path d="M36.3312 52H46.9522L40.8465 61.0208L47.9854 61.1568L33.0013 79L36.6319 65.396H29.9854L36.3312 52Z" fill="url(#paint0_linear_173_436)"/>
<path d="M50.8782 60H57.3686L53.6373 64.6777L58 64.7481L48.8431 74L51.0619 66.9463H47L50.8782 60Z" fill="url(#paint1_linear_173_436)"/>
</g>
<g filter="url(#filter1_d_173_436)">
<path d="M56.7855 62.5228C56.339 62.5586 55.8881 62.5767 55.4328 62.577H23.6707C21.4844 62.5852 19.318 62.1616 17.2958 61.3306C15.2736 60.4996 13.4353 59.2775 11.8865 57.7344C10.3377 56.1914 9.10875 54.3577 8.2702 52.3386C7.43165 50.3195 7 48.1547 7 45.9684C7 43.7821 7.43165 41.6173 8.2702 39.5982C9.10875 37.5791 10.3377 35.7454 11.8865 34.2023C13.4353 32.6593 15.2736 31.4372 17.2958 30.6062C19.318 29.7751 21.4844 29.3516 23.6707 29.3597H35.5132C39.3527 20.9125 48.1953 15 58.4897 15C72.3071 15 83.5085 25.6506 83.5085 38.7885C83.5085 51.9265 72.3071 62.577 58.4897 62.577C57.9169 62.577 57.3489 62.5589 56.7855 62.5228Z" fill="url(#paint2_linear_173_436)"/>
</g>
<defs>
<filter id="filter0_d_173_436" x="29.2949" y="49.4619" width="34.0146" height="33" filterUnits="userSpaceOnUse" color-interpolation-filters="sRGB">
<feFlood flood-opacity="0" result="BackgroundImageFix"/>
<feColorMatrix in="SourceAlpha" type="matrix" values="0 0 0 0 0 0 0 0 0 0 0 0 0 0 0 0 0 0 127 0" result="hardAlpha"/>
<feOffset dx="2.30956" dy="0.461913"/>
<feGaussianBlur stdDeviation="1.5"/>
<feColorMatrix type="matrix" values="0 0 0 0 0.204764 0 0 0 0 0.316762 0 0 0 0 0.534167 0 0 0 0.5 0"/>
<feBlend mode="normal" in2="BackgroundImageFix" result="effect1_dropShadow_173_436"/>
<feBlend mode="normal" in="SourceGraphic" in2="effect1_dropShadow_173_436" result="shape"/>
</filter>
<filter id="filter1_d_173_436" x="5.30956" y="11.4619" width="84.5083" height="55.5771" filterUnits="userSpaceOnUse" color-interpolation-filters="sRGB">
<feFlood flood-opacity="0" result="BackgroundImageFix"/>
<feColorMatrix in="SourceAlpha" type="matrix" values="0 0 0 0 0 0 0 0 0 0 0 0 0 0 0 0 0 0 127 0" result="hardAlpha"/>
<feOffset dx="2.30956" dy="0.461913"/>
<feGaussianBlur stdDeviation="2"/>
<feColorMatrix type="matrix" values="0 0 0 0 0.689883 0 0 0 0 0.785691 0 0 0 0 0.971667 0 0 0 0.28 0"/>
<feBlend mode="normal" in2="BackgroundImageFix" result="effect1_dropShadow_173_436"/>
<feBlend mode="normal" in="SourceGraphic" in2="effect1_dropShadow_173_436" result="shape"/>
</filter>
<linearGradient id="paint0_linear_173_436" x1="37.3294" y1="65.5" x2="28.9094" y2="62.4319" gradientUnits="userSpaceOnUse">
<stop stop-color="#FFD100"/>
<stop offset="1" stop-color="#FFF0AA"/>
</linearGradient>
<linearGradient id="paint1_linear_173_436" x1="51.488" y1="67" x2="46.5668" y2="64.8866" gradientUnits="userSpaceOnUse">
<stop stop-color="#FFD100"/>
<stop offset="1" stop-color="#FFF0AA"/>
</linearGradient>
<linearGradient id="paint2_linear_173_436" x1="37.986" y1="20.9947" x2="53.2388" y2="65.1563" gradientUnits="userSpaceOnUse">
<stop stop-color="white" stop-opacity="0.95"/>
<stop offset="1" stop-color="#B1D5FF" stop-opacity="0.5"/>
</linearGradient>
</defs>
</svg>
