<svg width="90" height="80" viewBox="0 0 90 80" fill="none" xmlns="http://www.w3.org/2000/svg">
<g filter="url(#filter0_d_145_6899)">
<path d="M34.2425 36H49.7116L40.819 49.0588L51.2165 49.2556L29.3927 75.0857L34.6805 55.3923H25L34.2425 36Z" fill="url(#paint0_linear_145_6899)"/>
<path d="M57.1455 49.7444H63.9371L60.0327 55.4783L64.5978 55.5645L55.016 66.9053L57.3378 58.259H53.0874L57.1455 49.7444Z" fill="url(#paint1_linear_145_6899)"/>
</g>
<g filter="url(#filter1_d_145_6899)">
<path d="M56.7855 52.5228C56.339 52.5586 55.8881 52.5767 55.4328 52.577H23.6707C21.4844 52.5852 19.318 52.1616 17.2958 51.3306C15.2736 50.4996 13.4353 49.2775 11.8865 47.7344C10.3377 46.1914 9.10875 44.3577 8.2702 42.3386C7.43165 40.3195 7 38.1547 7 35.9684C7 33.7821 7.43165 31.6173 8.2702 29.5982C9.10875 27.5791 10.3377 25.7454 11.8865 24.2023C13.4353 22.6593 15.2736 21.4372 17.2958 20.6062C19.318 19.7751 21.4844 19.3516 23.6707 19.3597H35.5132C39.3527 10.9125 48.1953 5 58.4897 5C72.3071 5 83.5085 15.6506 83.5085 28.7885C83.5085 41.9265 72.3071 52.577 58.4897 52.577C57.9169 52.577 57.3489 52.5589 56.7855 52.5228Z" fill="url(#paint2_linear_145_6899)"/>
</g>
<defs>
<filter id="filter0_d_145_6899" x="24.3096" y="33.4619" width="45.5977" height="45.0858" filterUnits="userSpaceOnUse" color-interpolation-filters="sRGB">
<feFlood flood-opacity="0" result="BackgroundImageFix"/>
<feColorMatrix in="SourceAlpha" type="matrix" values="0 0 0 0 0 0 0 0 0 0 0 0 0 0 0 0 0 0 127 0" result="hardAlpha"/>
<feOffset dx="2.30956" dy="0.461913"/>
<feGaussianBlur stdDeviation="1.5"/>
<feColorMatrix type="matrix" values="0 0 0 0 0.204764 0 0 0 0 0.316762 0 0 0 0 0.534167 0 0 0 0.5 0"/>
<feBlend mode="normal" in2="BackgroundImageFix" result="effect1_dropShadow_145_6899"/>
<feBlend mode="normal" in="SourceGraphic" in2="effect1_dropShadow_145_6899" result="shape"/>
</filter>
<filter id="filter1_d_145_6899" x="5.30956" y="1.46191" width="84.5083" height="55.5771" filterUnits="userSpaceOnUse" color-interpolation-filters="sRGB">
<feFlood flood-opacity="0" result="BackgroundImageFix"/>
<feColorMatrix in="SourceAlpha" type="matrix" values="0 0 0 0 0 0 0 0 0 0 0 0 0 0 0 0 0 0 127 0" result="hardAlpha"/>
<feOffset dx="2.30956" dy="0.461913"/>
<feGaussianBlur stdDeviation="2"/>
<feColorMatrix type="matrix" values="0 0 0 0 0.689883 0 0 0 0 0.785691 0 0 0 0 0.971667 0 0 0 0.28 0"/>
<feBlend mode="normal" in2="BackgroundImageFix" result="effect1_dropShadow_145_6899"/>
<feBlend mode="normal" in="SourceGraphic" in2="effect1_dropShadow_145_6899" result="shape"/>
</filter>
<linearGradient id="paint0_linear_145_6899" x1="35.6963" y1="55.5429" x2="23.4505" y2="51.0535" gradientUnits="userSpaceOnUse">
<stop stop-color="#FFD100"/>
<stop offset="1" stop-color="#FFF0AA"/>
</linearGradient>
<linearGradient id="paint1_linear_145_6899" x1="57.7836" y1="58.3249" x2="52.4071" y2="56.3538" gradientUnits="userSpaceOnUse">
<stop stop-color="#FFD100"/>
<stop offset="1" stop-color="#FFF0AA"/>
</linearGradient>
<linearGradient id="paint2_linear_145_6899" x1="37.986" y1="10.9947" x2="53.2388" y2="55.1563" gradientUnits="userSpaceOnUse">
<stop stop-color="white" stop-opacity="0.95"/>
<stop offset="1" stop-color="#B1D5FF" stop-opacity="0.5"/>
</linearGradient>
</defs>
</svg>
