<svg width="90" height="80" viewBox="0 0 90 80" fill="none" xmlns="http://www.w3.org/2000/svg">
<g filter="url(#filter0_d_178_1295)">
<path d="M45.6553 17.5504V65.302" stroke="#D9EEFF" stroke-width="2.5" stroke-linecap="round"/>
<path d="M45.5603 29.2231L53.7841 20.7338" stroke="#D9EEFF" stroke-width="2.5" stroke-linecap="round"/>
<path d="M45.56 29.2231L37.0708 20.7339" stroke="#D9EEFF" stroke-width="2.5" stroke-linecap="round"/>
<path d="M45.5603 54.6908L53.7841 63.18" stroke="#D9EEFF" stroke-width="2.5" stroke-linecap="round"/>
<path d="M45.56 54.6907L37.0708 63.18" stroke="#D9EEFF" stroke-width="2.5" stroke-linecap="round"/>
<path d="M66.2175 29.6855L24.8635 53.5613" stroke="#D9EEFF" stroke-width="2.5" stroke-linecap="round"/>
<path d="M56.0614 35.4395L67.5252 38.3169" stroke="#D9EEFF" stroke-width="2.5" stroke-linecap="round"/>
<path d="M56.0609 35.4394L59.1682 23.8429" stroke="#D9EEFF" stroke-width="2.5" stroke-linecap="round"/>
<path d="M34.0059 48.1731L30.7659 59.5398" stroke="#D9EEFF" stroke-width="2.5" stroke-linecap="round"/>
<path d="M34.0056 48.1731L22.4091 45.0658" stroke="#D9EEFF" stroke-width="2.5" stroke-linecap="round"/>
<path d="M65.99 53.5616L24.6359 29.6857" stroke="#D9EEFF" stroke-width="2.5" stroke-linecap="round"/>
<path d="M55.9281 47.6426L59.1681 59.0093" stroke="#D9EEFF" stroke-width="2.5" stroke-linecap="round"/>
<path d="M55.9282 47.6427L67.5247 44.5354" stroke="#D9EEFF" stroke-width="2.5" stroke-linecap="round"/>
<path d="M33.8728 34.9091L22.409 37.7865" stroke="#D9EEFF" stroke-width="2.5" stroke-linecap="round"/>
<path d="M33.8728 34.9089L30.7656 23.3124" stroke="#D9EEFF" stroke-width="2.5" stroke-linecap="round"/>
</g>
<path d="M28.1213 8.99994V12.2614" stroke="#ABD9FF" stroke-width="0.243503" stroke-linecap="round"/>
<path d="M28.0505 9.79557L28.5811 9.5304" stroke="#ABD9FF" stroke-width="0.243503" stroke-linecap="round"/>
<path d="M28.0504 9.79557L27.2546 9.5304" stroke="#ABD9FF" stroke-width="0.243503" stroke-linecap="round"/>
<path d="M28.0505 11.6528L28.5811 11.9179" stroke="#ABD9FF" stroke-width="0.243503" stroke-linecap="round"/>
<path d="M28.0504 11.6528L27.2546 11.9179" stroke="#ABD9FF" stroke-width="0.243503" stroke-linecap="round"/>
<path d="M29.5247 9.82892L26.7001 11.4597" stroke="#ABD9FF" stroke-width="0.243503" stroke-linecap="round"/>
<path d="M28.8307 10.2218L29.6136 10.4184" stroke="#ABD9FF" stroke-width="0.243503" stroke-linecap="round"/>
<path d="M28.831 10.2219L29.0432 9.42987" stroke="#ABD9FF" stroke-width="0.243503" stroke-linecap="round"/>
<path d="M27.325 11.0918L27.1037 11.8682" stroke="#ABD9FF" stroke-width="0.243503" stroke-linecap="round"/>
<path d="M27.325 11.0919L26.5331 10.8797" stroke="#ABD9FF" stroke-width="0.243503" stroke-linecap="round"/>
<path d="M29.5083 11.4595L26.6838 9.82873" stroke="#ABD9FF" stroke-width="0.243503" stroke-linecap="round"/>
<path d="M28.8221 11.0553L29.0433 11.8317" stroke="#ABD9FF" stroke-width="0.243503" stroke-linecap="round"/>
<path d="M28.8218 11.0554L29.6138 10.8431" stroke="#ABD9FF" stroke-width="0.243503" stroke-linecap="round"/>
<path d="M27.3149 10.1854L26.532 10.382" stroke="#ABD9FF" stroke-width="0.243503" stroke-linecap="round"/>
<path d="M27.3151 10.1855L27.1029 9.39352" stroke="#ABD9FF" stroke-width="0.243503" stroke-linecap="round"/>
<path d="M73.1162 15.2216V20.8124" stroke="#ABD9FF" stroke-width="0.243503" stroke-linecap="round"/>
<path d="M72.8831 16.4897L73.9442 16.2245" stroke="#ABD9FF" stroke-width="0.243503" stroke-linecap="round"/>
<path d="M72.8835 16.4897L71.5571 16.2245" stroke="#ABD9FF" stroke-width="0.243503" stroke-linecap="round"/>
<path d="M72.8831 19.6735L73.9442 20.2041" stroke="#ABD9FF" stroke-width="0.243503" stroke-linecap="round"/>
<path d="M72.8835 19.6734L71.5571 20.204" stroke="#ABD9FF" stroke-width="0.243503" stroke-linecap="round"/>
<path d="M75.5247 16.6423L70.6829 19.4377" stroke="#ABD9FF" stroke-width="0.243503" stroke-linecap="round"/>
<path d="M74.3352 17.3161L75.6774 17.6529" stroke="#ABD9FF" stroke-width="0.243503" stroke-linecap="round"/>
<path d="M74.3352 17.316L74.699 15.9582" stroke="#ABD9FF" stroke-width="0.243503" stroke-linecap="round"/>
<path d="M71.7529 18.8067L71.3735 20.1375" stroke="#ABD9FF" stroke-width="0.243503" stroke-linecap="round"/>
<path d="M71.7533 18.8067L70.3955 18.4429" stroke="#ABD9FF" stroke-width="0.243503" stroke-linecap="round"/>
<path d="M75.4973 19.4381L70.6555 16.6427" stroke="#ABD9FF" stroke-width="0.243503" stroke-linecap="round"/>
<path d="M74.3194 18.7447L74.6988 20.0755" stroke="#ABD9FF" stroke-width="0.243503" stroke-linecap="round"/>
<path d="M74.3192 18.7449L75.677 18.381" stroke="#ABD9FF" stroke-width="0.243503" stroke-linecap="round"/>
<path d="M71.7371 17.254L70.3948 17.5909" stroke="#ABD9FF" stroke-width="0.243503" stroke-linecap="round"/>
<path d="M71.7374 17.2542L71.3736 15.8964" stroke="#ABD9FF" stroke-width="0.243503" stroke-linecap="round"/>
<path d="M69.6721 56.3406V60.9306" stroke="#ABD9FF" stroke-width="0.243503" stroke-linecap="round"/>
<path d="M69.4346 57.3435L70.2303 57.0784" stroke="#ABD9FF" stroke-width="0.243503" stroke-linecap="round"/>
<path d="M69.435 57.3434L68.3738 57.0782" stroke="#ABD9FF" stroke-width="0.243503" stroke-linecap="round"/>
<path d="M69.4346 59.9962L70.2303 60.5267" stroke="#ABD9FF" stroke-width="0.243503" stroke-linecap="round"/>
<path d="M69.435 59.9962L68.3738 60.5268" stroke="#ABD9FF" stroke-width="0.243503" stroke-linecap="round"/>
<path d="M71.6487 57.5073L67.6736 59.8023" stroke="#ABD9FF" stroke-width="0.243503" stroke-linecap="round"/>
<path d="M70.6723 58.0605L71.7741 58.337" stroke="#ABD9FF" stroke-width="0.243503" stroke-linecap="round"/>
<path d="M70.6718 58.0605L70.9705 56.9459" stroke="#ABD9FF" stroke-width="0.243503" stroke-linecap="round"/>
<path d="M68.5525 59.2843L68.241 60.3768" stroke="#ABD9FF" stroke-width="0.243503" stroke-linecap="round"/>
<path d="M68.5525 59.2843L67.4379 58.9856" stroke="#ABD9FF" stroke-width="0.243503" stroke-linecap="round"/>
<path d="M71.6277 59.8022L67.6526 57.5072" stroke="#ABD9FF" stroke-width="0.243503" stroke-linecap="round"/>
<path d="M70.6603 59.2334L70.9717 60.3259" stroke="#ABD9FF" stroke-width="0.243503" stroke-linecap="round"/>
<path d="M70.6605 59.2333L71.7751 58.9346" stroke="#ABD9FF" stroke-width="0.243503" stroke-linecap="round"/>
<path d="M68.54 58.0096L67.4382 58.2861" stroke="#ABD9FF" stroke-width="0.243503" stroke-linecap="round"/>
<path d="M68.5403 58.0095L68.2416 56.8948" stroke="#ABD9FF" stroke-width="0.243503" stroke-linecap="round"/>
<path d="M31.9805 66.9521V70.9955" stroke="#ABD9FF" stroke-width="0.243503" stroke-linecap="round"/>
<path d="M31.7646 67.9549L32.5604 67.6897" stroke="#ABD9FF" stroke-width="0.243503" stroke-linecap="round"/>
<path d="M31.7643 67.9549L30.9685 67.6897" stroke="#ABD9FF" stroke-width="0.243503" stroke-linecap="round"/>
<path d="M31.7646 70.0771L32.5604 70.6077" stroke="#ABD9FF" stroke-width="0.243503" stroke-linecap="round"/>
<path d="M31.7643 70.0771L30.9685 70.6077" stroke="#ABD9FF" stroke-width="0.243503" stroke-linecap="round"/>
<path d="M33.7219 67.978L30.2203 69.9997" stroke="#ABD9FF" stroke-width="0.243503" stroke-linecap="round"/>
<path d="M32.8619 68.4654L33.8326 68.7091" stroke="#ABD9FF" stroke-width="0.243503" stroke-linecap="round"/>
<path d="M32.8621 68.4653L33.1252 67.4834" stroke="#ABD9FF" stroke-width="0.243503" stroke-linecap="round"/>
<path d="M30.9937 69.5434L30.7193 70.5059" stroke="#ABD9FF" stroke-width="0.243503" stroke-linecap="round"/>
<path d="M30.9939 69.5434L30.012 69.2803" stroke="#ABD9FF" stroke-width="0.243503" stroke-linecap="round"/>
<path d="M33.7019 70.0012L30.2003 67.9795" stroke="#ABD9FF" stroke-width="0.243503" stroke-linecap="round"/>
<path d="M32.8494 69.5L33.1237 70.4626" stroke="#ABD9FF" stroke-width="0.243503" stroke-linecap="round"/>
<path d="M32.8491 69.4998L33.8311 69.2367" stroke="#ABD9FF" stroke-width="0.243503" stroke-linecap="round"/>
<path d="M30.9827 68.4219L30.0119 68.6656" stroke="#ABD9FF" stroke-width="0.243503" stroke-linecap="round"/>
<path d="M30.9826 68.4219L30.7195 67.44" stroke="#ABD9FF" stroke-width="0.243503" stroke-linecap="round"/>
<path d="M16.7227 49.9733V53.2528" stroke="#ABD9FF" stroke-width="0.243503" stroke-linecap="round"/>
<path d="M16.6436 50.7111L17.1741 50.4459" stroke="#ABD9FF" stroke-width="0.243503" stroke-linecap="round"/>
<path d="M16.6437 50.7111L15.8479 50.4459" stroke="#ABD9FF" stroke-width="0.243503" stroke-linecap="round"/>
<path d="M16.6436 52.5681L17.1741 52.8332" stroke="#ABD9FF" stroke-width="0.243503" stroke-linecap="round"/>
<path d="M16.6437 52.5681L15.8479 52.8332" stroke="#ABD9FF" stroke-width="0.243503" stroke-linecap="round"/>
<path d="M18.1348 50.8071L15.2946 52.4469" stroke="#ABD9FF" stroke-width="0.243503" stroke-linecap="round"/>
<path d="M17.4375 51.2024L18.2247 51.3999" stroke="#ABD9FF" stroke-width="0.243503" stroke-linecap="round"/>
<path d="M17.4378 51.2023L17.6511 50.4059" stroke="#ABD9FF" stroke-width="0.243503" stroke-linecap="round"/>
<path d="M15.9221 52.0768L15.6996 52.8573" stroke="#ABD9FF" stroke-width="0.243503" stroke-linecap="round"/>
<path d="M15.9223 52.0768L15.126 51.8634" stroke="#ABD9FF" stroke-width="0.243503" stroke-linecap="round"/>
<path d="M18.1213 52.4465L15.2812 50.8067" stroke="#ABD9FF" stroke-width="0.243503" stroke-linecap="round"/>
<path d="M17.43 52.0398L17.6525 52.8203" stroke="#ABD9FF" stroke-width="0.243503" stroke-linecap="round"/>
<path d="M17.4298 52.0399L18.2261 51.8265" stroke="#ABD9FF" stroke-width="0.243503" stroke-linecap="round"/>
<path d="M15.9158 51.1654L15.1286 51.363" stroke="#ABD9FF" stroke-width="0.243503" stroke-linecap="round"/>
<path d="M15.9158 51.1654L15.7024 50.369" stroke="#ABD9FF" stroke-width="0.243503" stroke-linecap="round"/>
<defs>
<filter id="filter0_d_178_1295" x="19.4683" y="12.7623" width="55.6169" height="58.2517" filterUnits="userSpaceOnUse" color-interpolation-filters="sRGB">
<feFlood flood-opacity="0" result="BackgroundImageFix"/>
<feColorMatrix in="SourceAlpha" type="matrix" values="0 0 0 0 0 0 0 0 0 0 0 0 0 0 0 0 0 0 127 0" result="hardAlpha"/>
<feOffset dx="2.30956" dy="0.461913"/>
<feGaussianBlur stdDeviation="2"/>
<feColorMatrix type="matrix" values="0 0 0 0 0.718056 0 0 0 0 0.806834 0 0 0 0 0.979167 0 0 0 0.5 0"/>
<feBlend mode="normal" in2="BackgroundImageFix" result="effect1_dropShadow_178_1295"/>
<feBlend mode="normal" in="SourceGraphic" in2="effect1_dropShadow_178_1295" result="shape"/>
</filter>
</defs>
</svg>
