<svg width="90" height="80" viewBox="0 0 90 80" fill="none" xmlns="http://www.w3.org/2000/svg">
<g filter="url(#filter0_d_145_7201)">
<path d="M45.6553 17.5504V65.302" stroke="#98D0FF" stroke-width="2.43503" stroke-linecap="round"/>
<path d="M45.5601 29.2231L53.7839 20.7338" stroke="#98D0FF" stroke-width="2.43503" stroke-linecap="round"/>
<path d="M45.56 29.2231L37.0708 20.7339" stroke="#98D0FF" stroke-width="2.43503" stroke-linecap="round"/>
<path d="M45.5601 54.6908L53.7839 63.18" stroke="#98D0FF" stroke-width="2.43503" stroke-linecap="round"/>
<path d="M45.56 54.6907L37.0708 63.18" stroke="#98D0FF" stroke-width="2.43503" stroke-linecap="round"/>
<path d="M66.2178 29.6855L24.8637 53.5613" stroke="#98D0FF" stroke-width="2.43503" stroke-linecap="round"/>
<path d="M56.0612 35.4395L67.525 38.3169" stroke="#98D0FF" stroke-width="2.43503" stroke-linecap="round"/>
<path d="M56.0607 35.4394L59.168 23.8429" stroke="#98D0FF" stroke-width="2.43503" stroke-linecap="round"/>
<path d="M34.0059 48.1731L30.7659 59.5398" stroke="#98D0FF" stroke-width="2.43503" stroke-linecap="round"/>
<path d="M34.0054 48.1731L22.4089 45.0658" stroke="#98D0FF" stroke-width="2.43503" stroke-linecap="round"/>
<path d="M65.9897 53.5616L24.6357 29.6857" stroke="#98D0FF" stroke-width="2.43503" stroke-linecap="round"/>
<path d="M55.9284 47.6426L59.1684 59.0093" stroke="#98D0FF" stroke-width="2.43503" stroke-linecap="round"/>
<path d="M55.9284 47.6427L67.5249 44.5354" stroke="#98D0FF" stroke-width="2.43503" stroke-linecap="round"/>
<path d="M33.873 34.9091L22.4093 37.7865" stroke="#98D0FF" stroke-width="2.43503" stroke-linecap="round"/>
<path d="M33.8731 34.9089L30.7658 23.3124" stroke="#98D0FF" stroke-width="2.43503" stroke-linecap="round"/>
</g>
<path d="M28.1216 8.99994V12.2614" stroke="#98D0FF" stroke-width="0.243503" stroke-linecap="round"/>
<path d="M28.0508 9.79557L28.5814 9.5304" stroke="#98D0FF" stroke-width="0.243503" stroke-linecap="round"/>
<path d="M28.0506 9.79557L27.2549 9.5304" stroke="#98D0FF" stroke-width="0.243503" stroke-linecap="round"/>
<path d="M28.0508 11.6528L28.5814 11.9179" stroke="#98D0FF" stroke-width="0.243503" stroke-linecap="round"/>
<path d="M28.0506 11.6528L27.2549 11.9179" stroke="#98D0FF" stroke-width="0.243503" stroke-linecap="round"/>
<path d="M29.5249 9.82892L26.7004 11.4597" stroke="#98D0FF" stroke-width="0.243503" stroke-linecap="round"/>
<path d="M28.8309 10.2218L29.6139 10.4184" stroke="#98D0FF" stroke-width="0.243503" stroke-linecap="round"/>
<path d="M28.8312 10.2219L29.0435 9.42987" stroke="#98D0FF" stroke-width="0.243503" stroke-linecap="round"/>
<path d="M27.3247 11.0918L27.1035 11.8682" stroke="#98D0FF" stroke-width="0.243503" stroke-linecap="round"/>
<path d="M27.325 11.0919L26.5331 10.8797" stroke="#98D0FF" stroke-width="0.243503" stroke-linecap="round"/>
<path d="M29.5083 11.4595L26.6838 9.82873" stroke="#98D0FF" stroke-width="0.243503" stroke-linecap="round"/>
<path d="M28.8226 11.0553L29.0438 11.8317" stroke="#98D0FF" stroke-width="0.243503" stroke-linecap="round"/>
<path d="M28.8223 11.0554L29.6143 10.8431" stroke="#98D0FF" stroke-width="0.243503" stroke-linecap="round"/>
<path d="M27.3154 10.1854L26.5324 10.382" stroke="#98D0FF" stroke-width="0.243503" stroke-linecap="round"/>
<path d="M27.3156 10.1855L27.1034 9.39352" stroke="#98D0FF" stroke-width="0.243503" stroke-linecap="round"/>
<path d="M73.1162 15.2216V20.8124" stroke="#98D0FF" stroke-width="0.243503" stroke-linecap="round"/>
<path d="M72.8828 16.4897L73.944 16.2245" stroke="#98D0FF" stroke-width="0.243503" stroke-linecap="round"/>
<path d="M72.8835 16.4897L71.5571 16.2245" stroke="#98D0FF" stroke-width="0.243503" stroke-linecap="round"/>
<path d="M72.8828 19.6735L73.944 20.2041" stroke="#98D0FF" stroke-width="0.243503" stroke-linecap="round"/>
<path d="M72.8835 19.6734L71.5571 20.204" stroke="#98D0FF" stroke-width="0.243503" stroke-linecap="round"/>
<path d="M75.5249 16.6423L70.6831 19.4377" stroke="#98D0FF" stroke-width="0.243503" stroke-linecap="round"/>
<path d="M74.3355 17.3161L75.6777 17.6529" stroke="#98D0FF" stroke-width="0.243503" stroke-linecap="round"/>
<path d="M74.3354 17.316L74.6992 15.9582" stroke="#98D0FF" stroke-width="0.243503" stroke-linecap="round"/>
<path d="M71.7529 18.8067L71.3735 20.1375" stroke="#98D0FF" stroke-width="0.243503" stroke-linecap="round"/>
<path d="M71.7533 18.8067L70.3955 18.4429" stroke="#98D0FF" stroke-width="0.243503" stroke-linecap="round"/>
<path d="M75.4971 19.4381L70.6553 16.6427" stroke="#98D0FF" stroke-width="0.243503" stroke-linecap="round"/>
<path d="M74.3189 18.7447L74.6983 20.0755" stroke="#98D0FF" stroke-width="0.243503" stroke-linecap="round"/>
<path d="M74.319 18.7449L75.6768 18.381" stroke="#98D0FF" stroke-width="0.243503" stroke-linecap="round"/>
<path d="M71.7373 17.254L70.3951 17.5909" stroke="#98D0FF" stroke-width="0.243503" stroke-linecap="round"/>
<path d="M71.7374 17.2542L71.3736 15.8964" stroke="#98D0FF" stroke-width="0.243503" stroke-linecap="round"/>
<path d="M69.6724 56.3406V60.9306" stroke="#98D0FF" stroke-width="0.243503" stroke-linecap="round"/>
<path d="M69.4341 57.3435L70.2298 57.0784" stroke="#98D0FF" stroke-width="0.243503" stroke-linecap="round"/>
<path d="M69.4347 57.3434L68.3735 57.0782" stroke="#98D0FF" stroke-width="0.243503" stroke-linecap="round"/>
<path d="M69.4341 59.9962L70.2298 60.5267" stroke="#98D0FF" stroke-width="0.243503" stroke-linecap="round"/>
<path d="M69.4347 59.9962L68.3735 60.5268" stroke="#98D0FF" stroke-width="0.243503" stroke-linecap="round"/>
<path d="M71.6489 57.5073L67.6739 59.8023" stroke="#98D0FF" stroke-width="0.243503" stroke-linecap="round"/>
<path d="M70.6727 58.0605L71.7746 58.337" stroke="#98D0FF" stroke-width="0.243503" stroke-linecap="round"/>
<path d="M70.6725 58.0605L70.9712 56.9459" stroke="#98D0FF" stroke-width="0.243503" stroke-linecap="round"/>
<path d="M68.5522 59.2843L68.2408 60.3768" stroke="#98D0FF" stroke-width="0.243503" stroke-linecap="round"/>
<path d="M68.5525 59.2843L67.4379 58.9856" stroke="#98D0FF" stroke-width="0.243503" stroke-linecap="round"/>
<path d="M71.6279 59.8022L67.6529 57.5072" stroke="#98D0FF" stroke-width="0.243503" stroke-linecap="round"/>
<path d="M70.6605 59.2334L70.972 60.3259" stroke="#98D0FF" stroke-width="0.243503" stroke-linecap="round"/>
<path d="M70.6607 59.2333L71.7754 58.9346" stroke="#98D0FF" stroke-width="0.243503" stroke-linecap="round"/>
<path d="M68.5405 58.0096L67.4387 58.2861" stroke="#98D0FF" stroke-width="0.243503" stroke-linecap="round"/>
<path d="M68.5407 58.0095L68.2421 56.8948" stroke="#98D0FF" stroke-width="0.243503" stroke-linecap="round"/>
<path d="M31.9805 66.9521V70.9955" stroke="#98D0FF" stroke-width="0.243503" stroke-linecap="round"/>
<path d="M31.7646 67.9549L32.5604 67.6897" stroke="#98D0FF" stroke-width="0.243503" stroke-linecap="round"/>
<path d="M31.7645 67.9549L30.9688 67.6897" stroke="#98D0FF" stroke-width="0.243503" stroke-linecap="round"/>
<path d="M31.7646 70.0771L32.5604 70.6077" stroke="#98D0FF" stroke-width="0.243503" stroke-linecap="round"/>
<path d="M31.7645 70.0771L30.9688 70.6077" stroke="#98D0FF" stroke-width="0.243503" stroke-linecap="round"/>
<path d="M33.7217 67.978L30.22 69.9997" stroke="#98D0FF" stroke-width="0.243503" stroke-linecap="round"/>
<path d="M32.8619 68.4654L33.8326 68.7091" stroke="#98D0FF" stroke-width="0.243503" stroke-linecap="round"/>
<path d="M32.8619 68.4653L33.125 67.4834" stroke="#98D0FF" stroke-width="0.243503" stroke-linecap="round"/>
<path d="M30.9937 69.5434L30.7193 70.5059" stroke="#98D0FF" stroke-width="0.243503" stroke-linecap="round"/>
<path d="M30.9937 69.5434L30.0118 69.2803" stroke="#98D0FF" stroke-width="0.243503" stroke-linecap="round"/>
<path d="M33.7021 70.0012L30.2005 67.9795" stroke="#98D0FF" stroke-width="0.243503" stroke-linecap="round"/>
<path d="M32.8497 69.5L33.124 70.4626" stroke="#98D0FF" stroke-width="0.243503" stroke-linecap="round"/>
<path d="M32.8496 69.4998L33.8315 69.2367" stroke="#98D0FF" stroke-width="0.243503" stroke-linecap="round"/>
<path d="M30.9829 68.4219L30.0122 68.6656" stroke="#98D0FF" stroke-width="0.243503" stroke-linecap="round"/>
<path d="M30.9829 68.4219L30.7198 67.44" stroke="#98D0FF" stroke-width="0.243503" stroke-linecap="round"/>
<path d="M16.7231 49.9733V53.2528" stroke="#98D0FF" stroke-width="0.243503" stroke-linecap="round"/>
<path d="M16.644 50.7111L17.1746 50.4459" stroke="#98D0FF" stroke-width="0.243503" stroke-linecap="round"/>
<path d="M16.6439 50.7111L15.8481 50.4459" stroke="#98D0FF" stroke-width="0.243503" stroke-linecap="round"/>
<path d="M16.644 52.5681L17.1746 52.8332" stroke="#98D0FF" stroke-width="0.243503" stroke-linecap="round"/>
<path d="M16.6439 52.5681L15.8481 52.8332" stroke="#98D0FF" stroke-width="0.243503" stroke-linecap="round"/>
<path d="M18.1353 50.8071L15.2951 52.4469" stroke="#98D0FF" stroke-width="0.243503" stroke-linecap="round"/>
<path d="M17.4375 51.2024L18.2247 51.3999" stroke="#98D0FF" stroke-width="0.243503" stroke-linecap="round"/>
<path d="M17.438 51.2023L17.6514 50.4059" stroke="#98D0FF" stroke-width="0.243503" stroke-linecap="round"/>
<path d="M15.9224 52.0768L15.6999 52.8573" stroke="#98D0FF" stroke-width="0.243503" stroke-linecap="round"/>
<path d="M15.9228 52.0768L15.1265 51.8634" stroke="#98D0FF" stroke-width="0.243503" stroke-linecap="round"/>
<path d="M18.1211 52.4465L15.281 50.8067" stroke="#98D0FF" stroke-width="0.243503" stroke-linecap="round"/>
<path d="M17.4297 52.0398L17.6522 52.8203" stroke="#98D0FF" stroke-width="0.243503" stroke-linecap="round"/>
<path d="M17.4293 52.0399L18.2256 51.8265" stroke="#98D0FF" stroke-width="0.243503" stroke-linecap="round"/>
<path d="M15.9155 51.1654L15.1283 51.363" stroke="#98D0FF" stroke-width="0.243503" stroke-linecap="round"/>
<path d="M15.9156 51.1654L15.7022 50.369" stroke="#98D0FF" stroke-width="0.243503" stroke-linecap="round"/>
<defs>
<filter id="filter0_d_145_7201" x="19.5005" y="12.7947" width="55.5518" height="58.1867" filterUnits="userSpaceOnUse" color-interpolation-filters="sRGB">
<feFlood flood-opacity="0" result="BackgroundImageFix"/>
<feColorMatrix in="SourceAlpha" type="matrix" values="0 0 0 0 0 0 0 0 0 0 0 0 0 0 0 0 0 0 127 0" result="hardAlpha"/>
<feOffset dx="2.30956" dy="0.461913"/>
<feGaussianBlur stdDeviation="2"/>
<feColorMatrix type="matrix" values="0 0 0 0 0.689883 0 0 0 0 0.785691 0 0 0 0 0.971667 0 0 0 0.28 0"/>
<feBlend mode="normal" in2="BackgroundImageFix" result="effect1_dropShadow_145_7201"/>
<feBlend mode="normal" in="SourceGraphic" in2="effect1_dropShadow_145_7201" result="shape"/>
</filter>
</defs>
</svg>
