<svg width="90" height="80" viewBox="0 0 90 80" fill="none" xmlns="http://www.w3.org/2000/svg">
<g filter="url(#filter0_d_218_314)">
<path d="M23 22.3614C23 22.3614 27.2366 26.1761 30.549 26.0505C34.6991 25.8885 35.4113 22.5632 39.258 22.3614C43.2842 22.4015 43.6963 25.8487 48.0595 26.0505C51.9696 26.0041 53.6262 22.4243 57.3533 22.3614C61.0804 22.2986 65.0538 26.0502 65.0538 26.0502" stroke="url(#paint0_linear_218_314)" stroke-width="4.10315" stroke-linecap="round"/>
<path d="M11.4717 35.3248C11.4717 35.3248 14.3993 37.9602 16.6868 37.8731C19.5547 37.7613 20.0458 35.4649 22.7034 35.3248C25.4848 35.3536 25.7687 37.7348 28.7845 37.8731C31.4853 37.8408 32.6306 35.368 35.2043 35.3248C37.778 35.2816 40.524 37.8731 40.524 37.8731" stroke="url(#paint1_linear_218_314)" stroke-width="4.10315" stroke-linecap="round"/>
<path d="M37.6982 47.1471C37.6982 47.1471 41.9349 50.9618 45.2472 50.8361C49.3974 50.6741 50.1095 47.3488 53.9562 47.1471C57.9825 47.1871 58.3946 50.6344 62.7577 50.8361C66.6678 50.7897 68.3244 47.2099 72.0515 47.1471C75.7786 47.0843 79.7521 50.8358 79.7521 50.8358" stroke="url(#paint2_linear_218_314)" stroke-width="4.10315" stroke-linecap="round"/>
<path d="M13.4893 60.1161C13.4893 60.1161 17.7259 63.9308 21.0382 63.8052C25.1884 63.6432 25.9006 60.3179 29.7472 60.1161C33.7735 60.1562 34.1856 63.6034 38.5488 63.8052C42.4588 63.7588 44.1155 60.179 47.8425 60.1161C51.5696 60.0533 55.5431 63.8049 55.5431 63.8049" stroke="url(#paint3_linear_218_314)" stroke-width="4.10315" stroke-linecap="round"/>
</g>
<path d="M54.2228 35.4388L51.9976 37.6641" stroke="#CAD1D2" stroke-width="1.23095" stroke-linecap="round"/>
<path d="M51.9976 35.4388L54.2228 37.6641" stroke="#CAD1D2" stroke-width="1.23095" stroke-linecap="round"/>
<path d="M72.5138 59.1362L70.918 60.732" stroke="#61ACEB" stroke-width="1.02579" stroke-linecap="round"/>
<path d="M70.918 59.1362L72.5138 60.732" stroke="#61ACEB" stroke-width="1.02579" stroke-linecap="round"/>
<path d="M11.3478 52.2148L9.75195 53.8107" stroke="#B69CFF" stroke-width="1.02579" stroke-linecap="round"/>
<path d="M9.75195 52.2148L11.3478 53.8107" stroke="#B69CFF" stroke-width="1.02579" stroke-linecap="round"/>
<path d="M13.111 16.1917L11.5151 17.7875" stroke="#61ACEB" stroke-width="1.02579" stroke-linecap="round"/>
<path d="M11.5151 16.1917L13.111 17.7875" stroke="#61ACEB" stroke-width="1.02579" stroke-linecap="round"/>
<path d="M72.0582 18.463L70.4624 20.0588" stroke="#B299F9" stroke-width="1.02579" stroke-linecap="round"/>
<path d="M70.4624 18.463L72.0582 20.0588" stroke="#B299F9" stroke-width="1.02579" stroke-linecap="round"/>
<defs>
<filter id="filter0_d_218_314" x="7.51526" y="17.4521" width="80.0024" height="53.1693" filterUnits="userSpaceOnUse" color-interpolation-filters="sRGB">
<feFlood flood-opacity="0" result="BackgroundImageFix"/>
<feColorMatrix in="SourceAlpha" type="matrix" values="0 0 0 0 0 0 0 0 0 0 0 0 0 0 0 0 0 0 127 0" result="hardAlpha"/>
<feOffset dx="1.90466" dy="0.952331"/>
<feGaussianBlur stdDeviation="1.90466"/>
<feColorMatrix type="matrix" values="0 0 0 0 0.826667 0 0 0 0 0.885601 0 0 0 0 1 0 0 0 0.7 0"/>
<feBlend mode="normal" in2="BackgroundImageFix" result="effect1_dropShadow_218_314"/>
<feBlend mode="normal" in="SourceGraphic" in2="effect1_dropShadow_218_314" result="shape"/>
</filter>
<linearGradient id="paint0_linear_218_314" x1="27.4114" y1="19.5311" x2="74.2069" y2="34.5057" gradientUnits="userSpaceOnUse">
<stop stop-color="white" stop-opacity="0.84"/>
<stop offset="1" stop-color="#D3EFFF" stop-opacity="0.36"/>
</linearGradient>
<linearGradient id="paint1_linear_218_314" x1="14.5193" y1="33.3697" x2="46.8468" y2="43.7153" gradientUnits="userSpaceOnUse">
<stop stop-color="white" stop-opacity="0.84"/>
<stop offset="1" stop-color="#D3EFFF" stop-opacity="0.36"/>
</linearGradient>
<linearGradient id="paint2_linear_218_314" x1="42.1097" y1="44.3167" x2="88.9051" y2="59.2913" gradientUnits="userSpaceOnUse">
<stop stop-color="white" stop-opacity="0.84"/>
<stop offset="1" stop-color="#D3EFFF" stop-opacity="0.36"/>
</linearGradient>
<linearGradient id="paint3_linear_218_314" x1="17.9007" y1="57.2858" x2="64.6962" y2="72.2604" gradientUnits="userSpaceOnUse">
<stop stop-color="white" stop-opacity="0.84"/>
<stop offset="1" stop-color="#D3EFFF" stop-opacity="0.36"/>
</linearGradient>
</defs>
</svg>
