<svg width="90" height="80" viewBox="0 0 90 80" fill="none" xmlns="http://www.w3.org/2000/svg">
<g filter="url(#filter0_d_218_337)">
<path d="M22.999 22.3616C22.999 22.3616 27.2356 26.1762 30.548 26.0506C34.6982 25.8886 35.4103 22.5633 39.257 22.3616C43.2832 22.4016 43.6954 25.8488 48.0585 26.0506C51.9686 26.0042 53.6252 22.4244 57.3523 22.3616C61.0794 22.2987 65.0529 26.0503 65.0529 26.0503" stroke="url(#paint0_linear_218_337)" stroke-width="4.10315" stroke-linecap="round"/>
<path d="M11.4712 35.3249C11.4712 35.3249 14.3988 37.9603 16.6863 37.8732C19.5542 37.7614 20.0453 35.465 22.7029 35.3249C25.4843 35.3538 25.7682 37.7349 28.784 37.8732C31.4848 37.841 32.6301 35.3682 35.2038 35.3249C37.7775 35.2817 40.5235 37.8732 40.5235 37.8732" stroke="url(#paint1_linear_218_337)" stroke-width="4.10315" stroke-linecap="round"/>
<path d="M37.6978 47.1472C37.6978 47.1472 41.9344 50.9619 45.2467 50.8362C49.3969 50.6743 50.1091 47.3489 53.9557 47.1472C57.982 47.1873 58.3941 50.6345 62.7573 50.8362C66.6673 50.7898 68.3239 47.21 72.051 47.1472C75.7781 47.0844 79.7516 50.8359 79.7516 50.8359" stroke="url(#paint2_linear_218_337)" stroke-width="4.10315" stroke-linecap="round"/>
<path d="M13.4883 60.1163C13.4883 60.1163 17.7249 63.9309 21.0373 63.8053C25.1874 63.6433 25.8996 60.318 29.7463 60.1163C33.7725 60.1563 34.1846 63.6035 38.5478 63.8053C42.4579 63.7589 44.1145 60.1791 47.8416 60.1163C51.5686 60.0534 55.5421 63.805 55.5421 63.805" stroke="url(#paint3_linear_218_337)" stroke-width="4.10315" stroke-linecap="round"/>
</g>
<path d="M54.2228 35.4389L51.9976 37.6641" stroke="#CAD1D2" stroke-width="1.23095" stroke-linecap="round"/>
<path d="M51.9976 35.4389L54.2228 37.6641" stroke="#CAD1D2" stroke-width="1.23095" stroke-linecap="round"/>
<path d="M72.5138 59.1363L70.918 60.7321" stroke="#61ACEB" stroke-width="1.02579" stroke-linecap="round"/>
<path d="M70.918 59.1363L72.5138 60.7321" stroke="#61ACEB" stroke-width="1.02579" stroke-linecap="round"/>
<path d="M11.3478 52.215L9.75195 53.8108" stroke="#B69CFF" stroke-width="1.02579" stroke-linecap="round"/>
<path d="M9.75195 52.215L11.3478 53.8108" stroke="#B69CFF" stroke-width="1.02579" stroke-linecap="round"/>
<path d="M13.1105 16.1918L11.5146 17.7876" stroke="#61ACEB" stroke-width="1.02579" stroke-linecap="round"/>
<path d="M11.5146 16.1918L13.1105 17.7876" stroke="#61ACEB" stroke-width="1.02579" stroke-linecap="round"/>
<path d="M72.0572 18.463L70.4614 20.0588" stroke="#B299F9" stroke-width="1.02579" stroke-linecap="round"/>
<path d="M70.4614 18.463L72.0572 20.0588" stroke="#B299F9" stroke-width="1.02579" stroke-linecap="round"/>
<defs>
<filter id="filter0_d_218_337" x="7.51477" y="17.4522" width="80.0024" height="53.1693" filterUnits="userSpaceOnUse" color-interpolation-filters="sRGB">
<feFlood flood-opacity="0" result="BackgroundImageFix"/>
<feColorMatrix in="SourceAlpha" type="matrix" values="0 0 0 0 0 0 0 0 0 0 0 0 0 0 0 0 0 0 127 0" result="hardAlpha"/>
<feOffset dx="1.90466" dy="0.952331"/>
<feGaussianBlur stdDeviation="1.90466"/>
<feColorMatrix type="matrix" values="0 0 0 0 0.619792 0 0 0 0 0.74623 0 0 0 0 0.991667 0 0 0 0.4 0"/>
<feBlend mode="normal" in2="BackgroundImageFix" result="effect1_dropShadow_218_337"/>
<feBlend mode="normal" in="SourceGraphic" in2="effect1_dropShadow_218_337" result="shape"/>
</filter>
<linearGradient id="paint0_linear_218_337" x1="27.4105" y1="19.5312" x2="74.2059" y2="34.5058" gradientUnits="userSpaceOnUse">
<stop stop-color="white" stop-opacity="0.83"/>
<stop offset="1" stop-color="#CBE9FF" stop-opacity="0.48"/>
</linearGradient>
<linearGradient id="paint1_linear_218_337" x1="14.5188" y1="33.3698" x2="46.8463" y2="43.7154" gradientUnits="userSpaceOnUse">
<stop stop-color="white" stop-opacity="0.83"/>
<stop offset="1" stop-color="#CBE9FF" stop-opacity="0.48"/>
</linearGradient>
<linearGradient id="paint2_linear_218_337" x1="42.1092" y1="44.3168" x2="88.9047" y2="59.2915" gradientUnits="userSpaceOnUse">
<stop stop-color="white" stop-opacity="0.83"/>
<stop offset="1" stop-color="#CBE9FF" stop-opacity="0.48"/>
</linearGradient>
<linearGradient id="paint3_linear_218_337" x1="17.8997" y1="57.2859" x2="64.6952" y2="72.2605" gradientUnits="userSpaceOnUse">
<stop stop-color="white" stop-opacity="0.83"/>
<stop offset="1" stop-color="#CBE9FF" stop-opacity="0.48"/>
</linearGradient>
</defs>
</svg>
