<svg width="24" height="24" viewBox="0 0 24 24" fill="none" xmlns="http://www.w3.org/2000/svg">
<ellipse cx="9" cy="17" rx="2" ry="2.00001" fill="white"/>
<path d="M9 17L9 9" stroke="white" stroke-width="1.25" stroke-linecap="round" stroke-linejoin="round"/>
<path d="M6 12.9996L6.60058 13.7992L7 13.4992V12.9996H6ZM12 12.9996H11V13.4992L11.3994 13.7992L12 12.9996ZM7 5C7 3.89543 7.89543 3 9 3V1C6.79086 1 5 2.79086 5 5H7ZM7 12.9996V5H5V12.9996H7ZM5 17C5 15.692 5.62677 14.5307 6.60058 13.7992L5.39942 12.2001C3.94434 13.293 3 15.0364 3 17H5ZM9 21C6.79086 21 5 19.2092 5 17H3C3 20.3137 5.68629 23 9 23V21ZM13 17C13 19.2092 11.2091 21 9 21V23C12.3137 23 15 20.3137 15 17H13ZM11.3994 13.7992C12.3732 14.5307 13 15.692 13 17H15C15 15.0364 14.0557 13.293 12.6006 12.2001L11.3994 13.7992ZM11 5V12.9996H13V5H11ZM9 3C10.1046 3 11 3.89543 11 5H13C13 2.79086 11.2091 1 9 1V3Z" fill="white"/>
</svg>
