<svg width="90" height="80" viewBox="0 0 90 80" fill="none" xmlns="http://www.w3.org/2000/svg">
<path d="M40.877 25.6163C40.877 25.6163 43.398 29.0338 45.3683 28.9212C47.8382 28.7761 48.2601 25.797 50.5498 25.6163C52.9454 25.6522 53.1899 28.7405 55.7863 28.9212C58.1127 28.8797 59.0982 25.6726 61.3159 25.6163C63.5336 25.56 65.8974 28.9212 65.8974 28.9212" stroke="white" stroke-width="3.91282" stroke-linecap="round"/>
<path d="M39.3247 46.2721C39.3247 46.2721 43.1202 49.6896 46.0877 49.577C49.8057 49.4319 50.4437 46.4528 53.8899 46.2721C57.4969 46.308 57.8661 49.3963 61.775 49.577C65.278 49.5354 66.7621 46.3283 70.1011 46.2721C73.4401 46.2158 76.9999 49.5767 76.9999 49.5767" stroke="white" stroke-width="3.91282" stroke-linecap="round"/>
<path d="M17.6362 57.891C17.6362 57.891 21.4317 61.3085 24.3992 61.196C28.1173 61.0508 28.7553 58.0718 32.2014 57.891C35.8084 57.9269 36.1777 61.0152 40.0865 61.196C43.5895 61.1544 45.0736 57.9473 48.4126 57.891C51.7516 57.8347 55.3114 61.1957 55.3114 61.1957" stroke="white" stroke-width="3.91282" stroke-linecap="round"/>
<g filter="url(#filter0_f_85_404)">
<path d="M56.5442 36.0361L54.7368 37.8435" stroke="#CAD1D2" stroke-width="1.03279" stroke-linecap="round"/>
<path d="M54.7368 36.0361L56.5442 37.8435" stroke="#CAD1D2" stroke-width="1.03279" stroke-linecap="round"/>
<path d="M71.2659 56.95L69.9697 58.2462" stroke="#42A0F0" stroke-width="1.03279" stroke-linecap="round"/>
<path d="M69.9697 56.95L71.2659 58.2462" stroke="#42A0F0" stroke-width="1.03279" stroke-linecap="round"/>
<path d="M15.7532 50.4952L14.457 51.7913" stroke="#D0D0D0" stroke-width="1.03279" stroke-linecap="round"/>
<path d="M14.457 50.4952L15.7532 51.7913" stroke="#D0D0D0" stroke-width="1.03279" stroke-linecap="round"/>
<path d="M68.9417 20.0278L67.6455 21.3239" stroke="#42A0F0" stroke-width="1.03279" stroke-linecap="round"/>
<path d="M67.6455 20.0278L68.9417 21.3239" stroke="#42A0F0" stroke-width="1.03279" stroke-linecap="round"/>
</g>
<path d="M17.597 19C18.0991 19.0057 23.1939 26.9605 23.1939 30.0509C23.194 31.5353 22.6044 32.9589 21.5549 34.0086C20.5053 35.0583 19.0817 35.6481 17.5973 35.6482C16.1129 35.6483 14.6893 35.0587 13.6396 34.0092C12.5899 32.9596 12.0001 31.536 12 30.0516C12 26.96 17.0948 18.9946 17.597 19Z" fill="#42A0F0"/>
<path d="M13.3295 32.1436C13.8888 32.3146 14.5995 31.6113 14.9171 30.5727C15.2346 29.5341 15.0386 28.5536 14.4794 28.3826C13.9202 28.2116 13.2094 28.9149 12.8919 29.9535C12.5743 30.9921 12.7703 31.9726 13.3295 32.1436Z" fill="white"/>
<path d="M28.8947 33.201C29.2523 33.2049 32.8792 38.8679 32.8792 41.0685C32.8792 42.1253 32.4594 43.1388 31.7121 43.886C30.9649 44.6332 29.9514 45.053 28.8947 45.053C27.8379 45.053 26.8244 44.6332 26.0772 43.886C25.33 43.1388 24.9102 42.1253 24.9102 41.0685C24.9102 38.8679 28.5371 33.1971 28.8947 33.201Z" fill="#42A0F0"/>
<path d="M25.857 42.5577C26.2552 42.6794 26.7612 42.1787 26.9873 41.4393C27.2133 40.6999 27.0738 40.0018 26.6756 39.8801C26.2774 39.7584 25.7713 40.2591 25.5453 40.9984C25.3192 41.7378 25.4588 42.4359 25.857 42.5577Z" fill="white"/>
<defs>
<filter id="filter0_f_85_404" x="13.424" y="18.995" width="58.8746" height="40.284" filterUnits="userSpaceOnUse" color-interpolation-filters="sRGB">
<feFlood flood-opacity="0" result="BackgroundImageFix"/>
<feBlend mode="normal" in="SourceGraphic" in2="BackgroundImageFix" result="shape"/>
<feGaussianBlur stdDeviation="0.258198" result="effect1_foregroundBlur_85_404"/>
</filter>
</defs>
</svg>
