<svg width="90" height="80" viewBox="0 0 90 80" fill="none" xmlns="http://www.w3.org/2000/svg">
<path d="M28.2509 50.9579C38.5828 50.9579 46.9584 42.5822 46.9584 32.2504C46.9584 21.9185 38.5828 13.5429 28.2509 13.5429C17.9191 13.5429 9.54346 21.9185 9.54346 32.2504C9.54346 42.5822 17.9191 50.9579 28.2509 50.9579Z" fill="#FA9E42"/>
<g filter="url(#filter0_f_85_387)">
<path fill-rule="evenodd" clip-rule="evenodd" d="M28.1087 8.00047C28.1562 8.0002 28.2038 8.00006 28.2514 8.00006C28.299 8.00006 28.3466 8.0002 28.3941 8.00047C29.0319 8.00415 29.5459 8.52414 29.5422 9.1619C29.5386 9.79966 29.0186 10.3137 28.3808 10.31C28.3377 10.3098 28.2946 10.3096 28.2514 10.3096C28.2082 10.3096 28.1651 10.3098 28.122 10.31C27.4842 10.3137 26.9643 9.79966 26.9606 9.1619C26.9569 8.52414 27.4709 8.00415 28.1087 8.00047ZM12.8376 15.0122C13.286 15.4658 13.2817 16.1969 12.8281 16.6453C12.7671 16.7055 12.7065 16.7662 12.6462 16.8272C12.1978 17.2808 11.4667 17.285 11.0131 16.8367C10.5595 16.3884 10.5552 15.6572 11.0036 15.2036C11.0702 15.1362 11.1372 15.0693 11.2045 15.0027C11.6581 14.5543 12.3893 14.5586 12.8376 15.0122ZM43.6652 15.0122C44.1135 14.5586 44.8447 14.5543 45.2983 15.0027C45.3657 15.0693 45.4326 15.1362 45.4992 15.2036C45.9476 15.6572 45.9433 16.3884 45.4897 16.8367C45.0361 17.285 44.305 17.2808 43.8566 16.8272C43.7964 16.7662 43.7357 16.7055 43.6747 16.6453C43.2211 16.1969 43.2169 15.4658 43.6652 15.0122ZM51.34 30.9597C51.9778 30.956 52.4977 31.47 52.5014 32.1078C52.5017 32.1553 52.5018 32.2029 52.5018 32.2505C52.5018 32.2981 52.5017 32.3457 52.5014 32.3932C52.4977 33.031 51.9778 33.545 51.34 33.5413C50.7022 33.5376 50.1882 33.0177 50.1919 32.3799C50.1921 32.3368 50.1923 32.2937 50.1923 32.2505C50.1923 32.2073 50.1921 32.1642 50.1919 32.1211C50.1882 31.4833 50.7022 30.9633 51.34 30.9597ZM5.16281 30.9597C5.80057 30.9633 6.31459 31.4833 6.31091 32.1211C6.31067 32.1642 6.31054 32.2073 6.31054 32.2505C6.31054 32.2937 6.31067 32.3368 6.31091 32.3799C6.31459 33.0177 5.80057 33.5376 5.16281 33.5413C4.52506 33.545 4.00507 33.031 4.00139 32.3932C4.00111 32.3457 4.00098 32.2981 4.00098 32.2505C4.00098 32.2029 4.00111 32.1553 4.00139 32.1078C4.00507 31.47 4.52506 30.956 5.16281 30.9597ZM11.0131 47.6643C11.4667 47.2159 12.1978 47.2202 12.6462 47.6738C12.7065 47.7348 12.7671 47.7954 12.8281 47.8557C13.2817 48.3041 13.286 49.0352 12.8376 49.4888C12.3893 49.9424 11.6581 49.9467 11.2045 49.4983C11.1372 49.4317 11.0702 49.3647 11.0036 49.2974C10.5552 48.8438 10.5595 48.1126 11.0131 47.6643ZM45.4897 47.6643C45.9433 48.1126 45.9476 48.8438 45.4992 49.2974C45.4326 49.3647 45.3657 49.4317 45.2983 49.4983C44.8447 49.9467 44.1135 49.9424 43.6652 49.4888C43.2169 49.0352 43.2211 48.3041 43.6747 47.8557C43.7357 47.7954 43.7963 47.7348 43.8566 47.6738C44.305 47.2202 45.0361 47.2159 45.4897 47.6643ZM26.9606 55.3391C26.9643 54.7013 27.4842 54.1873 28.122 54.191C28.1651 54.1912 28.2082 54.1914 28.2514 54.1914C28.2742 54.1914 28.297 54.1913 28.3198 54.1913C28.3401 54.1912 28.3605 54.1911 28.3808 54.191C29.0186 54.1873 29.5386 54.7013 29.5422 55.3391C29.5459 55.9768 29.0319 56.4968 28.3941 56.5005C28.3466 56.5008 28.299 56.5009 28.2514 56.5009C28.2038 56.5009 28.1562 56.5008 28.1087 56.5005C27.4709 56.4968 26.9569 55.9768 26.9606 55.3391Z" fill="#FA9E42"/>
</g>
<g filter="url(#filter1_f_85_387)">
<path d="M26.4397 29.1426C32.4429 25.954 35.8388 20.6002 34.0246 17.1846C32.2104 13.7689 25.8731 13.5849 19.8699 16.7735C13.8666 19.9621 10.4707 25.3159 12.2849 28.7315C14.0991 32.1472 20.4364 32.3312 26.4397 29.1426Z" fill="#F6DC51"/>
</g>
<g filter="url(#filter2_d_85_387)">
<path d="M56.7855 68.5228C56.339 68.5586 55.8881 68.5767 55.4328 68.577H23.6707C21.4844 68.5852 19.318 68.1616 17.2958 67.3306C15.2736 66.4996 13.4353 65.2775 11.8865 63.7344C10.3377 62.1914 9.10875 60.3577 8.2702 58.3386C7.43165 56.3195 7 54.1547 7 51.9684C7 49.7821 7.43165 47.6173 8.2702 45.5982C9.10875 43.5791 10.3377 41.7454 11.8865 40.2023C13.4353 38.6593 15.2736 37.4372 17.2958 36.6062C19.318 35.7751 21.4844 35.3516 23.6707 35.3597H35.5132C39.3527 26.9125 48.1953 21 58.4897 21C72.3071 21 83.5085 31.6506 83.5085 44.7885C83.5085 57.9265 72.3071 68.577 58.4897 68.577C57.9169 68.577 57.3489 68.5589 56.7855 68.5228Z" fill="url(#paint0_linear_85_387)"/>
</g>
<defs>
<filter id="filter0_f_85_387" x="3.80098" y="7.80006" width="48.901" height="48.9009" filterUnits="userSpaceOnUse" color-interpolation-filters="sRGB">
<feFlood flood-opacity="0" result="BackgroundImageFix"/>
<feBlend mode="normal" in="SourceGraphic" in2="BackgroundImageFix" result="shape"/>
<feGaussianBlur stdDeviation="0.1" result="effect1_foregroundBlur_85_387"/>
</filter>
<filter id="filter1_f_85_387" x="6.79639" y="9.49744" width="32.7168" height="26.9213" filterUnits="userSpaceOnUse" color-interpolation-filters="sRGB">
<feFlood flood-opacity="0" result="BackgroundImageFix"/>
<feBlend mode="normal" in="SourceGraphic" in2="BackgroundImageFix" result="shape"/>
<feGaussianBlur stdDeviation="2.5" result="effect1_foregroundBlur_85_387"/>
</filter>
<filter id="filter2_d_85_387" x="5.30956" y="17.4619" width="84.5083" height="55.5771" filterUnits="userSpaceOnUse" color-interpolation-filters="sRGB">
<feFlood flood-opacity="0" result="BackgroundImageFix"/>
<feColorMatrix in="SourceAlpha" type="matrix" values="0 0 0 0 0 0 0 0 0 0 0 0 0 0 0 0 0 0 127 0" result="hardAlpha"/>
<feOffset dx="2.30956" dy="0.461913"/>
<feGaussianBlur stdDeviation="2"/>
<feColorMatrix type="matrix" values="0 0 0 0 0.560328 0 0 0 0 0.700183 0 0 0 0 0.971667 0 0 0 0.4 0"/>
<feBlend mode="normal" in2="BackgroundImageFix" result="effect1_dropShadow_85_387"/>
<feBlend mode="normal" in="SourceGraphic" in2="effect1_dropShadow_85_387" result="shape"/>
</filter>
<linearGradient id="paint0_linear_85_387" x1="37.986" y1="26.9947" x2="53.2388" y2="71.1563" gradientUnits="userSpaceOnUse">
<stop stop-color="white" stop-opacity="0.87"/>
<stop offset="1" stop-color="#F7F7F7" stop-opacity="0.38"/>
<stop offset="1" stop-color="#F7F7F7" stop-opacity="0.38"/>
</linearGradient>
</defs>
</svg>
