<svg width="90" height="80" viewBox="0 0 90 80" fill="none" xmlns="http://www.w3.org/2000/svg">
<path d="M26.8915 54.9887C27.4206 54.9953 32.7829 63.3678 32.7829 66.6217C32.7829 68.1842 32.1622 69.6827 31.0574 70.7876C29.9525 71.8925 28.454 72.5132 26.8915 72.5132C25.329 72.5132 23.8304 71.8925 22.7256 70.7876C21.6207 69.6827 21 68.1842 21 66.6217C21 63.3678 26.3628 54.9829 26.8915 54.9887Z" fill="#42A0F0"/>
<path d="M22.3994 68.824C22.9881 69.004 23.7362 68.2636 24.0705 67.1703C24.4048 66.077 24.1985 65.0448 23.6098 64.8648C23.0212 64.6848 22.273 65.4252 21.9387 66.5186C21.6045 67.6119 21.8107 68.6441 22.3994 68.824Z" fill="white"/>
<path d="M59.2953 54.9886C59.8244 54.9953 65.1867 63.3677 65.1867 66.6216C65.1867 68.1842 64.566 69.6827 63.4612 70.7875C62.3563 71.8924 60.8578 72.5131 59.2953 72.5131C57.7328 72.5131 56.2342 71.8924 55.1294 70.7875C54.0245 69.6827 53.4038 68.1842 53.4038 66.6216C53.4038 63.3677 58.7666 54.9828 59.2953 54.9886Z" fill="#42A0F0"/>
<path d="M54.8032 68.824C55.3919 69.004 56.1401 68.2636 56.4743 67.1703C56.8086 66.077 56.6023 65.0448 56.0136 64.8648C55.425 64.6848 54.6768 65.4252 54.3425 66.5186C54.0083 67.6119 54.2145 68.6441 54.8032 68.824Z" fill="white"/>
<path d="M41.8705 37.4758C42.3996 37.4825 47.7619 45.8549 47.7619 49.1089C47.7619 50.6714 47.1412 52.1699 46.0364 53.2748C44.9315 54.3796 43.433 55.0003 41.8705 55.0003C40.308 55.0003 38.8094 54.3796 37.7046 53.2748C36.5997 52.1699 35.979 50.6714 35.979 49.1089C35.979 45.8549 41.3418 37.4701 41.8705 37.4758Z" fill="#42A0F0"/>
<path d="M37.3784 51.3113C37.9671 51.4913 38.7153 50.7509 39.0495 49.6576C39.3838 48.5643 39.1775 47.5321 38.5888 47.3521C38.0002 47.1721 37.252 47.9125 36.9177 49.0059C36.5835 50.0992 36.7897 51.1314 37.3784 51.3113Z" fill="white"/>
<g filter="url(#filter0_d_85_403)">
<path d="M54.7855 56.5228C54.339 56.5586 53.8881 56.5767 53.4328 56.577H21.6707C19.4844 56.5852 17.318 56.1616 15.2958 55.3306C13.2736 54.4996 11.4353 53.2775 9.88651 51.7344C8.33768 50.1914 7.10875 48.3577 6.2702 46.3386C5.43165 44.3195 5 42.1547 5 39.9684C5 37.7821 5.43165 35.6173 6.2702 33.5982C7.10875 31.5791 8.33768 29.7454 9.88651 28.2023C11.4353 26.6593 13.2736 25.4372 15.2958 24.6062C17.318 23.7751 19.4844 23.3516 21.6707 23.3597H33.5132C37.3527 14.9125 46.1953 9 56.4897 9C70.3071 9 81.5085 19.6506 81.5085 32.7885C81.5085 45.9265 70.3071 56.577 56.4897 56.577C55.9169 56.577 55.3489 56.5589 54.7855 56.5228Z" fill="url(#paint0_linear_85_403)"/>
</g>
<defs>
<filter id="filter0_d_85_403" x="2.30956" y="4.46191" width="86.5083" height="57.5771" filterUnits="userSpaceOnUse" color-interpolation-filters="sRGB">
<feFlood flood-opacity="0" result="BackgroundImageFix"/>
<feColorMatrix in="SourceAlpha" type="matrix" values="0 0 0 0 0 0 0 0 0 0 0 0 0 0 0 0 0 0 127 0" result="hardAlpha"/>
<feOffset dx="2.30956" dy="0.461913"/>
<feGaussianBlur stdDeviation="2.5"/>
<feColorMatrix type="matrix" values="0 0 0 0 0.560328 0 0 0 0 0.700183 0 0 0 0 0.971667 0 0 0 0.4 0"/>
<feBlend mode="normal" in2="BackgroundImageFix" result="effect1_dropShadow_85_403"/>
<feBlend mode="normal" in="SourceGraphic" in2="effect1_dropShadow_85_403" result="shape"/>
</filter>
<linearGradient id="paint0_linear_85_403" x1="35.986" y1="14.9947" x2="51.2388" y2="59.1563" gradientUnits="userSpaceOnUse">
<stop stop-color="white" stop-opacity="0.87"/>
<stop offset="1" stop-color="#F7F7F7" stop-opacity="0.38"/>
</linearGradient>
</defs>
</svg>
