<svg width="90" height="80" viewBox="0 0 90 80" fill="none" xmlns="http://www.w3.org/2000/svg">
<g filter="url(#filter0_d_85_388)">
<path d="M44.4999 65.5179C58.317 65.5179 69.5179 54.317 69.5179 40.4999C69.5179 26.6829 58.317 15.4819 44.4999 15.4819C30.6829 15.4819 19.4819 26.6829 19.4819 40.4999C19.4819 54.317 30.6829 65.5179 44.4999 65.5179Z" fill="#FA9E42"/>
</g>
<g filter="url(#filter1_f_85_388)">
<path fill-rule="evenodd" clip-rule="evenodd" d="M44.3671 6.67372L44.4999 6.67346L44.6327 6.67372C45.3653 6.67654 45.9569 7.27272 45.9541 8.00534C45.9513 8.73796 45.3551 9.32958 44.6225 9.32676L44.4999 9.32652L44.3773 9.32676C43.6447 9.32958 43.0485 8.73796 43.0457 8.00534C43.0429 7.27272 43.6345 6.67653 44.3671 6.67372ZM29.5081 11.6262C29.8725 12.2617 29.6527 13.0724 29.0172 13.4368C28.9467 13.4772 28.8764 13.5179 28.8063 13.5588C28.1736 13.9282 27.3613 13.7147 26.9919 13.082C26.6225 12.4493 26.836 11.637 27.4687 11.2676C27.5448 11.2232 27.621 11.1791 27.6975 11.1352C28.3331 10.7708 29.1437 10.9906 29.5081 11.6262ZM59.4916 11.6262C59.856 10.9906 60.6667 10.7708 61.3022 11.1352C61.3787 11.1791 61.455 11.2232 61.5311 11.2676C62.1638 11.637 62.3772 12.4493 62.0078 13.082C61.6385 13.7147 60.8261 13.9282 60.1934 13.5588C60.1233 13.5179 60.053 13.4772 59.9826 13.4368C59.347 13.0724 59.1272 12.2617 59.4916 11.6262ZM17.0819 22.992C17.7146 23.3614 17.9281 24.1737 17.5587 24.8064C17.5178 24.8765 17.4771 24.9468 17.4367 25.0173C17.0723 25.6528 16.2616 25.8726 15.6261 25.5082C14.9905 25.1438 14.7707 24.3332 15.1351 23.6976C15.179 23.6211 15.2231 23.5449 15.2675 23.4688C15.6369 22.8361 16.4492 22.6226 17.0819 22.992ZM71.9178 22.992C72.5505 22.6226 73.3628 22.8361 73.7322 23.4688C73.7766 23.5449 73.8208 23.6211 73.8646 23.6976C74.229 24.3332 74.0092 25.1438 73.3737 25.5082C72.7381 25.8726 71.9275 25.6528 71.5631 25.0173C71.5227 24.9468 71.482 24.8765 71.4411 24.8064C71.0717 24.1737 71.2851 23.3614 71.9178 22.992ZM12.0052 39.0458C12.7378 39.0486 13.3295 39.6448 13.3266 40.3774L13.3264 40.5L13.3266 40.6226C13.3295 41.3552 12.7378 41.9514 12.0052 41.9542C11.2726 41.957 10.6764 41.3654 10.6736 40.6328L10.6733 40.5L10.6736 40.3672C10.6764 39.6346 11.2726 39.043 12.0052 39.0458ZM76.9945 39.0458C77.7271 39.043 78.3233 39.6346 78.3261 40.3672L78.3264 40.5L78.3261 40.6328C78.3233 41.3654 77.7271 41.957 76.9945 41.9542C76.2619 41.9514 75.6703 41.3552 75.6731 40.6226L75.6733 40.5L75.6731 40.3774C75.6703 39.6448 76.2619 39.0486 76.9945 39.0458ZM15.6261 55.4917C16.2616 55.1273 17.0723 55.3471 17.4367 55.9827C17.4771 56.0531 17.5177 56.1234 17.5587 56.1935C17.9281 56.8262 17.7146 57.6386 17.0819 58.0079C16.4492 58.3773 15.6369 58.1639 15.2675 57.5312C15.2231 57.4551 15.179 57.3788 15.1351 57.3024C14.7707 56.6668 14.9905 55.8562 15.6261 55.4917ZM73.3737 55.4917C74.0092 55.8562 74.229 56.6668 73.8646 57.3024C73.8208 57.3788 73.7766 57.4551 73.7322 57.5312C73.3629 58.1639 72.5505 58.3773 71.9178 58.0079C71.2851 57.6386 71.0717 56.8262 71.4411 56.1935C71.482 56.1234 71.5227 56.0531 71.5631 55.9827C71.9275 55.3471 72.7381 55.1273 73.3737 55.4917ZM26.9919 67.9179C27.3613 67.2852 28.1736 67.0718 28.8063 67.4412C28.8764 67.4821 28.9467 67.5228 29.0172 67.5632C29.6527 67.9276 29.8725 68.7382 29.5081 69.3738C29.1437 70.0093 28.333 70.2291 27.6975 69.8647C27.621 69.8209 27.5448 69.7768 27.4687 69.7323C26.836 69.363 26.6225 68.5506 26.9919 67.9179ZM62.0078 67.9179C62.3772 68.5506 62.1638 69.363 61.5311 69.7323C61.455 69.7768 61.3787 69.8209 61.3022 69.8647C60.6667 70.2291 59.856 70.0093 59.4916 69.3738C59.1272 68.7382 59.347 67.9276 59.9826 67.5632C60.053 67.5228 60.1233 67.4821 60.1934 67.4412C60.8261 67.0718 61.6385 67.2852 62.0078 67.9179ZM43.0457 72.9946C43.0485 72.262 43.6447 71.6704 44.3773 71.6732L44.4999 71.6734L44.6224 71.6732C45.3551 71.6704 45.9513 72.262 45.9541 72.9946C45.9569 73.7272 45.3653 74.3234 44.6327 74.3263L44.4999 74.3265L44.3671 74.3263C43.6345 74.3234 43.0428 73.7272 43.0457 72.9946Z" fill="#FA9E42"/>
</g>
<g filter="url(#filter2_f_85_388)">
<path d="M40.8786 35.2888C48.5684 31.2044 52.9183 24.3466 50.5945 19.9714C48.2706 15.5962 40.153 15.3604 32.4632 19.4448C24.7734 23.5292 20.4234 30.3871 22.7473 34.7623C25.0711 39.1374 33.1888 39.3732 40.8786 35.2888Z" fill="#F6DC51"/>
</g>
<defs>
<filter id="filter0_d_85_388" x="14.8057" y="8.93517" width="64.0649" height="64.0647" filterUnits="userSpaceOnUse" color-interpolation-filters="sRGB">
<feFlood flood-opacity="0" result="BackgroundImageFix"/>
<feColorMatrix in="SourceAlpha" type="matrix" values="0 0 0 0 0 0 0 0 0 0 0 0 0 0 0 0 0 0 127 0" result="hardAlpha"/>
<feOffset dx="2.33813" dy="0.467626"/>
<feGaussianBlur stdDeviation="3.50719"/>
<feColorMatrix type="matrix" values="0 0 0 0 0 0 0 0 0 0 0 0 0 0 0 0 0 0 0.25 0"/>
<feBlend mode="normal" in2="BackgroundImageFix" result="effect1_dropShadow_85_388"/>
<feBlend mode="normal" in="SourceGraphic" in2="effect1_dropShadow_85_388" result="shape"/>
</filter>
<filter id="filter1_f_85_388" x="10.2091" y="6.20918" width="68.5814" height="68.5816" filterUnits="userSpaceOnUse" color-interpolation-filters="sRGB">
<feFlood flood-opacity="0" result="BackgroundImageFix"/>
<feBlend mode="normal" in="SourceGraphic" in2="BackgroundImageFix" result="shape"/>
<feGaussianBlur stdDeviation="0.232143" result="effect1_foregroundBlur_85_388"/>
</filter>
<filter id="filter2_f_85_388" x="16.0474" y="10.4551" width="41.2471" height="33.8234" filterUnits="userSpaceOnUse" color-interpolation-filters="sRGB">
<feFlood flood-opacity="0" result="BackgroundImageFix"/>
<feBlend mode="normal" in="SourceGraphic" in2="BackgroundImageFix" result="shape"/>
<feGaussianBlur stdDeviation="3.0371" result="effect1_foregroundBlur_85_388"/>
</filter>
</defs>
</svg>
