<svg width="90" height="80" viewBox="0 0 90 80" fill="none" xmlns="http://www.w3.org/2000/svg">
<g filter="url(#filter0_d_85_388)">
<path d="M44.5004 65.5179C58.3175 65.5179 69.5184 54.317 69.5184 40.4999C69.5184 26.6829 58.3175 15.4819 44.5004 15.4819C30.6834 15.4819 19.4824 26.6829 19.4824 40.4999C19.4824 54.317 30.6834 65.5179 44.5004 65.5179Z" fill="#FA9E42"/>
</g>
<g filter="url(#filter1_f_85_388)">
<path d="M44.4999 71.8309C61.8035 71.8309 75.8308 57.8036 75.8308 40.5C75.8308 23.1964 61.8035 9.16907 44.4999 9.16907C27.1963 9.16907 13.1689 23.1964 13.1689 40.5C13.1689 57.8036 27.1963 71.8309 44.4999 71.8309Z" stroke="#FA9E42" stroke-width="2.65306" stroke-linecap="round" stroke-dasharray="0.23 15.43"/>
</g>
<g filter="url(#filter2_f_85_388)">
<path d="M40.8786 35.2888C48.5684 31.2044 52.9183 24.3466 50.5945 19.9714C48.2706 15.5962 40.153 15.3604 32.4632 19.4448C24.7734 23.5292 20.4234 30.3871 22.7473 34.7623C25.0711 39.1374 33.1888 39.3732 40.8786 35.2888Z" fill="#F6DC51"/>
</g>
<defs>
<filter id="filter0_d_85_388" x="14.8062" y="8.93517" width="64.0649" height="64.0647" filterUnits="userSpaceOnUse" color-interpolation-filters="sRGB">
<feFlood flood-opacity="0" result="BackgroundImageFix"/>
<feColorMatrix in="SourceAlpha" type="matrix" values="0 0 0 0 0 0 0 0 0 0 0 0 0 0 0 0 0 0 127 0" result="hardAlpha"/>
<feOffset dx="2.33813" dy="0.467626"/>
<feGaussianBlur stdDeviation="3.50719"/>
<feColorMatrix type="matrix" values="0 0 0 0 0 0 0 0 0 0 0 0 0 0 0 0 0 0 0.25 0"/>
<feBlend mode="normal" in2="BackgroundImageFix" result="effect1_dropShadow_85_388"/>
<feBlend mode="normal" in="SourceGraphic" in2="effect1_dropShadow_85_388" result="shape"/>
</filter>
<filter id="filter1_f_85_388" x="11.378" y="7.37824" width="66.2435" height="66.2435" filterUnits="userSpaceOnUse" color-interpolation-filters="sRGB">
<feFlood flood-opacity="0" result="BackgroundImageFix"/>
<feBlend mode="normal" in="SourceGraphic" in2="BackgroundImageFix" result="shape"/>
<feGaussianBlur stdDeviation="0.232143" result="effect1_foregroundBlur_85_388"/>
</filter>
<filter id="filter2_f_85_388" x="16.0474" y="10.4551" width="41.2471" height="33.8234" filterUnits="userSpaceOnUse" color-interpolation-filters="sRGB">
<feFlood flood-opacity="0" result="BackgroundImageFix"/>
<feBlend mode="normal" in="SourceGraphic" in2="BackgroundImageFix" result="shape"/>
<feGaussianBlur stdDeviation="3.0371" result="effect1_foregroundBlur_85_388"/>
</filter>
</defs>
</svg>
