<svg width="87" height="78" viewBox="0 0 87 78" fill="none" xmlns="http://www.w3.org/2000/svg">
<path d="M28.9027 35.208H45.4769L35.949 49.1996L47.0892 49.4104L23.7064 77.0857L29.372 55.9855H19L28.9027 35.208Z" fill="url(#paint0_linear_45_19945)"/>
<path d="M54.513 49.9343H61.7898L57.6065 56.0777L62.4977 56.1701L52.2314 68.3209L54.719 59.057H50.165L54.513 49.9343Z" fill="url(#paint1_linear_45_19945)"/>
<g filter="url(#filter0_d_45_19945)">
<path d="M52.7855 52.5228C52.339 52.5586 51.8881 52.5767 51.4328 52.577H19.6707C17.4844 52.5852 15.318 52.1616 13.2958 51.3306C11.2736 50.4996 9.43535 49.2775 7.88651 47.7344C6.33768 46.1914 5.10875 44.3577 4.2702 42.3386C3.43165 40.3195 3 38.1547 3 35.9684C3 33.7821 3.43165 31.6173 4.2702 29.5982C5.10875 27.5791 6.33768 25.7454 7.88651 24.2023C9.43535 22.6593 11.2736 21.4372 13.2958 20.6062C15.318 19.7751 17.4844 19.3516 19.6707 19.3597H31.5132C35.3527 10.9125 44.1953 5 54.4897 5C68.3071 5 79.5085 15.6506 79.5085 28.7885C79.5085 41.9265 68.3071 52.577 54.4897 52.577C53.9169 52.577 53.3489 52.5589 52.7855 52.5228Z" fill="url(#paint2_linear_45_19945)"/>
</g>
<defs>
<filter id="filter0_d_45_19945" x="0.309565" y="0.461913" width="86.5083" height="57.5771" filterUnits="userSpaceOnUse" color-interpolation-filters="sRGB">
<feFlood flood-opacity="0" result="BackgroundImageFix"/>
<feColorMatrix in="SourceAlpha" type="matrix" values="0 0 0 0 0 0 0 0 0 0 0 0 0 0 0 0 0 0 127 0" result="hardAlpha"/>
<feOffset dx="2.30956" dy="0.461913"/>
<feGaussianBlur stdDeviation="2.5"/>
<feColorMatrix type="matrix" values="0 0 0 0 0.560328 0 0 0 0 0.700183 0 0 0 0 0.971667 0 0 0 0.4 0"/>
<feBlend mode="normal" in2="BackgroundImageFix" result="effect1_dropShadow_45_19945"/>
<feBlend mode="normal" in="SourceGraphic" in2="effect1_dropShadow_45_19945" result="shape"/>
</filter>
<linearGradient id="paint0_linear_45_19945" x1="30.4604" y1="56.1469" x2="17.3398" y2="51.3368" gradientUnits="userSpaceOnUse">
<stop stop-color="#FFD100"/>
<stop offset="1" stop-color="#FFF0AA"/>
</linearGradient>
<linearGradient id="paint1_linear_45_19945" x1="55.1967" y1="59.1276" x2="49.4361" y2="57.0157" gradientUnits="userSpaceOnUse">
<stop stop-color="#FFD100"/>
<stop offset="1" stop-color="#FFF0AA"/>
</linearGradient>
<linearGradient id="paint2_linear_45_19945" x1="33.986" y1="10.9947" x2="49.2388" y2="55.1563" gradientUnits="userSpaceOnUse">
<stop stop-color="white" stop-opacity="0.87"/>
<stop offset="1" stop-color="#F7F7F7" stop-opacity="0.38"/>
</linearGradient>
</defs>
</svg>
