<svg width="90" height="81" viewBox="0 0 90 81" fill="none" xmlns="http://www.w3.org/2000/svg">
<path d="M30.9027 35.208H47.4769L37.949 49.1996L49.0892 49.4104L25.7064 77.0857L31.372 55.9855H21L30.9027 35.208Z" fill="url(#paint0_linear_85_406)"/>
<path d="M56.513 49.9343H63.7898L59.6065 56.0777L64.4977 56.1701L54.2314 68.3209L56.719 59.057H52.165L56.513 49.9343Z" fill="url(#paint1_linear_85_406)"/>
<g filter="url(#filter0_d_85_406)">
<path d="M54.7855 52.5228C54.339 52.5586 53.8881 52.5767 53.4328 52.577H21.6707C19.4844 52.5852 17.318 52.1616 15.2958 51.3306C13.2736 50.4996 11.4353 49.2775 9.88651 47.7344C8.33768 46.1914 7.10875 44.3577 6.2702 42.3386C5.43165 40.3195 5 38.1547 5 35.9684C5 33.7821 5.43165 31.6173 6.2702 29.5982C7.10875 27.5791 8.33768 25.7454 9.88651 24.2023C11.4353 22.6593 13.2736 21.4372 15.2958 20.6062C17.318 19.7751 19.4844 19.3516 21.6707 19.3597H33.5132C37.3527 10.9125 46.1953 5 56.4897 5C70.3071 5 81.5085 15.6506 81.5085 28.7885C81.5085 41.9265 70.3071 52.577 56.4897 52.577C55.9169 52.577 55.3489 52.5589 54.7855 52.5228Z" fill="url(#paint2_linear_85_406)"/>
</g>
<defs>
<filter id="filter0_d_85_406" x="2.30956" y="0.461913" width="86.5083" height="57.5771" filterUnits="userSpaceOnUse" color-interpolation-filters="sRGB">
<feFlood flood-opacity="0" result="BackgroundImageFix"/>
<feColorMatrix in="SourceAlpha" type="matrix" values="0 0 0 0 0 0 0 0 0 0 0 0 0 0 0 0 0 0 127 0" result="hardAlpha"/>
<feOffset dx="2.30956" dy="0.461913"/>
<feGaussianBlur stdDeviation="2.5"/>
<feColorMatrix type="matrix" values="0 0 0 0 0.560328 0 0 0 0 0.700183 0 0 0 0 0.971667 0 0 0 0.4 0"/>
<feBlend mode="normal" in2="BackgroundImageFix" result="effect1_dropShadow_85_406"/>
<feBlend mode="normal" in="SourceGraphic" in2="effect1_dropShadow_85_406" result="shape"/>
</filter>
<linearGradient id="paint0_linear_85_406" x1="32.4604" y1="56.1469" x2="19.3398" y2="51.3368" gradientUnits="userSpaceOnUse">
<stop stop-color="#FFD100"/>
<stop offset="1" stop-color="#FFF0AA"/>
</linearGradient>
<linearGradient id="paint1_linear_85_406" x1="57.1967" y1="59.1276" x2="51.4361" y2="57.0157" gradientUnits="userSpaceOnUse">
<stop stop-color="#FFD100"/>
<stop offset="1" stop-color="#FFF0AA"/>
</linearGradient>
<linearGradient id="paint2_linear_85_406" x1="35.986" y1="10.9947" x2="51.2388" y2="55.1563" gradientUnits="userSpaceOnUse">
<stop stop-color="white" stop-opacity="0.87"/>
<stop offset="1" stop-color="#F7F7F7" stop-opacity="0.38"/>
</linearGradient>
</defs>
</svg>
